<svg id="Layer_31" data-name="Layer 31" xmlns="http://www.w3.org/2000/svg" viewBox="0 0 1900 900"><defs><style>.cls-1{fill:#181c19;}.cls-2{fill:#1a2333;}</style></defs><rect class="cls-1" width="1900" height="900"/><rect class="cls-2" y="882.03" width="1900" height="2.5"/><rect class="cls-2" y="853.03" width="1900" height="2.5"/><rect class="cls-2" y="824.03" width="1900" height="2.5"/><rect class="cls-2" y="795.03" width="1900" height="2.5"/><rect class="cls-2" y="766.03" width="1900" height="2.5"/><rect class="cls-2" y="737.03" width="1900" height="2.5"/><rect class="cls-2" y="708.03" width="1900" height="2.5"/><rect class="cls-2" y="679.03" width="1900" height="2.5"/><rect class="cls-2" y="650.03" width="1900" height="2.5"/><rect class="cls-2" y="621.03" width="1900" height="2.5"/><rect class="cls-2" y="592.03" width="1900" height="2.5"/><rect class="cls-2" y="563.03" width="1900" height="2.5"/><rect class="cls-2" y="534.03" width="1900" height="2.5"/><rect class="cls-2" y="505.03" width="1900" height="2.5"/><rect class="cls-2" y="476.03" width="1900" height="2.5"/><rect class="cls-2" y="447.03" width="1900" height="2.5"/><rect class="cls-2" y="418.03" width="1900" height="2.5"/><rect class="cls-2" y="389.03" width="1900" height="2.5"/><rect class="cls-2" y="360.03" width="1900" height="2.5"/><rect class="cls-2" y="331.03" width="1900" height="2.5"/><rect class="cls-2" y="302.03" width="1900" height="2.5"/><rect class="cls-2" y="273.03" width="1900" height="2.5"/><rect class="cls-2" y="244.03" width="1900" height="2.5"/><rect class="cls-2" y="215.03" width="1900" height="2.5"/><rect class="cls-2" y="186.03" width="1900" height="2.5"/><rect class="cls-2" y="157.03" width="1900" height="2.5"/><rect class="cls-2" y="128.03" width="1900" height="2.5"/><rect class="cls-2" y="99.03" width="1900" height="2.5"/><rect class="cls-2" y="70.03" width="1900" height="2.5"/><rect class="cls-2" y="41.03" width="1900" height="2.5"/><rect class="cls-2" y="12.03" width="1900" height="2.5"/></svg>