<svg width="640" height="640" viewBox="0 0 640 640" fill="none" xmlns="http://www.w3.org/2000/svg">
<rect width="640" height="640" fill="#E8E2D7"/>
<path d="M473.6 40.4L463.6 37.8L457.6 31.6L451.2 25.6V18.4L452.6 18.2L454 17.8L462.8 16.8L471.4 15.8L474 16L477 15.6L477.8 17.2L478.8 18.8L476.8 23.8L474.6 28.8L476.6 30.4L478.8 32.4L484.8 37L490.8 41.6V42.4L488.8 42.8L486.8 43.2H483.4L473.6 40.4Z" fill="#BEB771"/>
<path d="M373.8 36.8L353 31.6V30.8L353.2 29.8L354 26.2L354.6 22.6L357 22L359.4 21.2L382 15.6L405 9.79999V11L399.8 26.6L394.6 42.4H394.4L373.8 36.8Z" fill="#FFEAE7"/>
<path d="M182.4 36L151.4 33.4H147.4L146.6 31.4L146 29.4H146.8L147.6 29L184 22.6L220.4 16L220.8 16.2L221 16.6L220 25.6L218.8 34.8L218.4 36.6L218.2 38.4H215.8L213.4 38.2L182.4 36Z" fill="#A9805E"/>
<path d="M524.8 24.4L517.6 12.4V11.4L523.4 9.00004L529.4 6.60004L537.2 11.2L545 15.6L551 19.2L557 22.6L547 28.4L536.6 34.2L534.6 35.2L532.2 36.4L524.8 24.4Z" fill="white"/>
<path d="M422.4 26L418.8 22.8L416.4 20.8L414 18.8L415 12.2L416 5.60004L416.4 4.00004L416.8 2.60004L424.8 3.00004L432.8 3.40004L438.6 3.80004L444 4.00004L445.8 6.40004L447.4 8.80004V25H444.8L436.4 26.6L427.8 28.4H426.8L426 28.8L422.4 26Z" fill="#BEB771"/>
<path d="M398.8 87.6L394.8 79V78L407.4 68.4L420 58.8L421.4 57.8L422.8 56.8L429.8 62.8L437 68.8L437.8 74L438.6 79.4V81L428.6 84.8L418.6 88.6L411.4 92.4L404 96.4H402.8L398.8 87.8V87.6Z" fill="white"/>
<path d="M444.8 94L442.8 84L440.8 74.2V73L446 71.4L451 70H461.6L461.2 71L460.8 72L453.4 82.6L446 93.4L445.4 94L444.8 94.6V94.4V94Z" fill="white"/>
<path d="M165.4 91.6L157.2 90.6V83.6L157.6 76.6L158.2 68L158.8 59.4L159 58L159.4 56.6L161.2 55.8L162.8 55L179.8 54.6L196.8 54.4L198.2 59.8L199.8 65.4L189 79.2L178.2 92.8H174L165.4 91.6Z" fill="white"/>
<path d="M336.6 92.4V92L339.2 82L341.6 72.4L342 72L342.2 71.8L350.4 70.8L358.8 70L368.2 69.2L377.6 68.6H390.4L390 73L389.6 77.2L389.2 78.8L388.8 80.4L363.4 86.6L338.2 92.8H336.6V92.4Z" fill="white"/>
<path d="M324.4 89.6L321.6 86.8L302 68.8L282.2 50.6L281.6 48.2L281 45.8L280 41.2L279 36.6V36H279.4L292.4 37.6L305.2 39.6L316.8 41.6L328.4 43.6L336.4 45.2L344.6 46.8H344.8L345 47.2L343 52.2L341 57.2L334.6 73.8L328.2 90.4L327.8 91.2L327.4 92L324.4 89.6Z" fill="white"/>
<path d="M137.2 88.2L127 87L120.2 73.2L113.2 59.6L114.8 57.4L116.4 55.2L118.2 53L119.8 50.6L125 53.2L130 56L140 61.6L150 67L151.6 68.2L153.2 69.4L153 78.2L152.8 87L152.4 88.4L152.2 90H150L147.6 89.8L137.2 88.2Z" fill="white"/>
<path d="M585.6 76.8L581.6 64.4V63.4L593 60L604.4 56.6L604.8 56.8L605 57L606.2 68.2L607.4 79.2V82L599.8 85L592.4 88.2L591 88.6L589.6 89.2L585.6 76.8Z" fill="#FFEAE7"/>
<path d="M544.2 79L544.6 77.2L546 69.2L547.2 60.8V59H541L534.8 58.6L532 52.2L529.4 45.8V45L539 39L549 33L555.8 28.8L562.8 24.4L563 24.8L565 38L567 51.4V60.8L556.2 70.8L545.2 80.4L544.6 80.6L543.8 80.8L544.2 79Z" fill="white"/>
<path d="M612.4 74V70H623.2L625 72.4L626.6 75.2L626.2 75.6L620.2 76.8L614.4 78.2H612.4V74Z" fill="#A9805E"/>
<path d="M46.6002 69.4L43.2002 61.8V22.8L48.2002 21L53.2002 19.4L60.8002 24.8L68.0002 30L79.6002 45.2L91.4002 60.4V61.2L73.4002 68L55.8002 74.6L52.8002 75.6L49.8002 76.8L46.6002 69.4Z" fill="#FFEAE7"/>
<path d="M86.1998 75.4L76.7998 74V73.2L79.5998 71.6L81.9998 70L88.9998 65.8L95.9998 61.6L100.2 62.8L104.4 64.2L105 64.6L105.4 64.8L102.4 68.8L99.3998 72.4L97.3998 74.6L95.3998 76.6L86.1998 75.4Z" fill="#BEB771"/>
<path d="M32.6 69L22.6 65L20.4 56.4L18 47.8L15.2 38.6L12 29.2H12.2L22 28L31.6 27L34 26.6L36.2 26.2L37.6 34.8L39 43.4L38 50L36.8 56.8L40 64.6L43.2 72.4H43L42.8 72.8L32.6 69Z" fill="white"/>
<path d="M493.8 69.2L494.2 68L496.6 59L499.2 50L499.4 49.6L499.8 49.2L509.6 48.4L519.4 47.6L522 47.2L524.6 47L527 55L529.4 63L529 63.2L528.8 63.6L511.4 67L494 70.6H493.4L493.8 69.2Z" fill="#BEB771"/>
<path d="M211.4 68L204.8 66.8L204.6 66.6L204.4 66.4L202 55L199.6 43.6L199.8 42.8L200 42L210 43.6L220 45.2V69.2H218L211.4 68Z" fill="#BEB771"/>
<path d="M274.8 64.8L266 62L258.6 60.4L251.2 58.8L239.2 57.2L227.6 55.4H224.6V51.4L225.6 45L226.2 38.6H228.2L230.2 38.2L235.8 36.8L241.8 35.2L252.4 33.2L263.4 31.2L266.2 30.6L269.2 30V30.2L269.4 30.4L271.4 40.4L273.4 50.6L275.2 52.6L277 54.6L281 60.6L285 66.6V67.2H283.8L274.8 64.6V64.8Z" fill="white"/>
<path d="M343.2 66.2L343.6 65L347.2 50.6L350.8 36L355.2 37.2L359.2 38.4L375.6 43L391.8 47.6H392.4L392.8 48L391.8 55.2L391 62.6L390.8 63.2L390.6 64L379.2 64.4L367.6 64.8L357.6 65.6L347.2 66.6L345.2 67L343 67.4L343.2 66.2Z" fill="white"/>
<path d="M396 57.6L397.2 49L402.2 37L407.2 24.8V24.6L407.6 24.4L414 26.4L420.4 28.4V47.2L407.8 56.6L395 66H394.4L396 57.6Z" fill="#A9805E"/>
<path d="M435.4 60L425.8 54L427 44.4L428.2 35V33L430 32.6L431.6 32.2L440.4 30.2L449.2 28.4L456.8 37L464.4 45.4L466.6 51L469 56.6L466.6 61.4L464.4 66H445.2L435.4 60Z" fill="white"/>
<path d="M145.2 59.2L138 55L130 51L122.4 47L126.4 41L130.8 35V34.8L131.2 34.4L143.2 35.6L155.2 36.6H157.4V39.8L155.8 49.6L154.2 59.2V63.4H152.6L145.2 59.2Z" fill="white"/>
<path d="M572.8 54L569.6 49.2V38L570 26.6L582.6 25.6L595.4 24.4L596.2 24.6L597 25L599.6 38.4L602.4 52L602 52.4L601.6 52.8L590 55.8L578.2 59H576L572.8 54Z" fill="white"/>
<path d="M160.4 50.8L161 46L161.8 41.4V37.4H162.8L177.6 38.6L192.4 39.8L192.8 40.4L193.2 40.8L194.2 44.8L195.2 48.6V50H169.2L165 50.6L160.6 51L160.4 50.8Z" fill="white"/>
<path d="M604.6 37.6L602.2 28.4L605.4 23.6L608.8 18.6L611 20.6L613.4 22.4L614.6 23.6L615.6 24.8L611.6 35.8L607.6 46.8H607.2L604.6 37.6Z" fill="white"/>
<path d="M502.8 44.4L501.8 43.2L491 35.2L480 27.2V26L483.2 17.6L486.4 9.39999L489.2 6.59999L492 3.79999L504 10.2L516 16.6L518 20L520 23.4L524 31L528 38.6V39.6L525.6 42.6L523.4 45.6H503.8L502.8 44.4Z" fill="white"/>
<path d="M421.6 194L417.2 193.2V192.4L413.6 163L409.6 133.6L411.6 132L413.4 130.4L417 127.2L420.6 124L421.8 125.6L422.8 127.2L426.4 132L430 136.8L435.4 143.2L440.6 149.6L449.2 158L457.6 166.6V167.4L444.8 178.6L432 190L429 192.6L426 195.2L421.6 194.4V194Z" fill="white"/>
<path d="M201.2 190.4L203 186.6L208.8 173.2L214.6 159.8L214.8 159.4L226 164.4L237.4 169.4L237.6 173.2L238 177.2L238.4 185.2L239 193.2H223L211.2 193.8L199.6 194.2L201.2 190.4Z" fill="#FFEAE7"/>
<path d="M191.2 189.2L190 188.4L194.2 176.4L198.6 164.4L199.2 163.2L199.6 162.2L203.6 162.8L207.6 163.4L207.8 163.6L208 163.8L200.8 177L193.6 190.2H192.4L191.2 189.2Z" fill="white"/>
<path d="M294.2 185L282.8 181.4L282.6 181L282.2 180.8L292 157.2L301.6 133.6L301.8 133.4V133.2L312.6 137.2L323.2 141.2L321.8 144.4L320.6 147.6L315.4 162L310.4 176.4L308 182.4L306 188.4L305.8 188.6L294.2 185Z" fill="#FFEAE7"/>
<path d="M481 188L480.6 187.4L476.8 174.8L473 162.4L474.2 161L475.4 159.4L485.4 149.4L495.4 139L506 143L516.8 147L517 148.8L517.2 150.4L515.2 167.2L513.2 184.2L513 186.6L512.6 189H481.2L481 188Z" fill="#A9805E"/>
<path d="M150 186L148 184.8L139 178L130 171.4V170.6L131.6 169.8L133.2 168.8L135.8 169.6L138.6 170.4L147.6 173.2L156.8 176.2V177.2L154.4 182.4L152 187.6L150 186Z" fill="white"/>
<path d="M69.7998 183.8L66.7998 183.2L50.7998 180.4L34.3998 177.4L33.9998 177L33.7998 176.8L42.5998 163.4L51.3998 150.2L52.1998 149L52.9998 148L60.3998 146L67.9998 144H70.9998L71.3998 145.6L71.7998 147L73.5998 162L75.5998 177L75.9998 180L76.3998 182.8L74.5998 183.6L72.9998 184.4H72.7998L69.7998 183.8Z" fill="#A9805E"/>
<path d="M515.2 181.6V181L520.4 157L525.4 133L531 117.8L536.6 102.4L537 102.6L537.4 102.8L544.8 112.8L552.4 122.8L548.8 148.6L545.4 174.4H545.2L545 174.6L535.6 177L526.4 179.4L520.8 181L515.2 182.4V181.6Z" fill="white"/>
<path d="M81.6004 177.6L81.2004 174.6L79.2004 159.8L77.4004 145V143L83.4004 142.2L89.4004 141.6L94.0004 140L98.2004 138.4L98.8004 138.8L99.2004 139.4L109.4 151.8L119.6 164.2L119.2 164.6L118.8 165L100.8 173L83.0004 180.6H82.2004L81.6004 177.6Z" fill="white"/>
<path d="M172.6 178.8H161.6L161.2 178.2L160.8 177.8L162 165L163.2 152.2L163.6 152L179 155.6L194.6 159.2L195 159.6L195.2 160L191.4 169.4L187.6 179H172.6V178.8Z" fill="white"/>
<path d="M264 173.6L252.8 170V169.2L258.2 167.4L263.4 165.8L272.8 164L282.2 162.2V163.4L279 170.4L275.6 177.4H275L263.8 173.6H264Z" fill="white"/>
<path d="M552 171.8L552.2 170L554.2 147.2L556.4 124.2L556.8 123.6L557.2 123.2L570 122.8L582.8 122.6L589.6 143.8L596.4 165H596.2L574.4 169.4L552.8 173.4H551.6L552 171.8Z" fill="#BEB771"/>
<path d="M353.2 171L352.8 169.6L356.2 161.6L359.6 153.4L364.4 143.4L369.2 133.4H370.4L387.6 138.4L404.8 143.6L405.4 144L405.8 144.6L406.8 150L407.6 155.4V157.6H405.2L398 159.6L390.6 162L382.6 165L374.6 167.8L368.2 169.8L361.4 171.6L357.4 172L353.4 172.4L353.2 171Z" fill="white"/>
<path d="M143 165.8L131 162.6L129.2 160.8L127.6 158.8L121.6 152.6L116 146L125.4 138.4L134.6 131L146.6 139.4L158 148V151.4L157.2 159.4L156.2 167.4V169H155.2L143.2 165.8H143Z" fill="#A9805E"/>
<path d="M230.8 162.6L217.2 158L216.8 157.6L219.2 154.6L221.8 151.4L226.2 146.4L230.6 141.2L242.6 128.6L254 116H261.8L261.4 117.4L261 118.8L260 124.2L259 129.8L258.4 141L257.6 152.2L256.8 157.4L256 162.8L255.6 163L255.4 163.4L250.2 165.4L245.2 167.2H244L230.6 162.6H230.8Z" fill="#A9805E"/>
<path d="M456.4 158.8L451.4 154.4L447.8 150.4L444.2 146.2L448.2 143L452.2 139.8L462 132L471.8 124.2H472.2L476.8 135L481.4 145.6L480.8 146.4L480.4 147.2L471.2 155.2L462.2 163.2H461.2L456.4 158.8Z" fill="#A9805E"/>
<path d="M599.4 162L599.2 161.8L594.6 143L590 124V122.4L594 119.8L598 117.2L598.8 118.2L599.4 119.2L609.4 135.6L619.4 152.2V153.2L615.8 155L612.2 156.6L606 159.4L599.8 162.4L599.4 162Z" fill="white"/>
<path d="M265.4 144L266.2 127.2V116.4L270.8 116.8L275.6 117.2L287 121.8L298.6 126.4L299 126.8L299.6 127.2L293 141L286.4 154.8L282.6 155.6L279 156.4L272.6 158.4L266 160.8H264.6L265.4 144Z" fill="white"/>
<path d="M200.4 156.4L195.6 155.6L195.2 155.2V155L200.4 137.8L205.6 120.6L208.8 120.2L212.2 119.8V120.2L210.4 137.4L208.6 154.6L208.4 156.2L208 157.6H205.2L200.4 156.4Z" fill="white"/>
<path d="M214.6 134.6L217 113.8L217.4 113.4L232.8 114.2L247.8 115.2L248.2 115.6L241.4 123L234.6 130.4L228 137.6L221.6 144.6L217.2 150.2L212.8 155.6H212.2L214.6 134.6Z" fill="white"/>
<path d="M176.6 148.6L161.6 145L157.2 140.4L152.8 136L153.8 134.6L154.6 133.2L162.8 126.6L171.2 120L180 113.4L188.8 107H189.6L195.6 111.6L201.6 116V117L199.6 124.2L197.4 131.6L195 141.6L192.6 151.6L192.2 151.8L191.6 152.2L176.6 148.6Z" fill="white"/>
<path d="M27.3996 140L10.3996 131.6L9.99961 131.2L9.59961 131L24.5996 125.6L39.3996 120.4L47.7996 125.6L56.3996 131V132L50.9996 140L45.5996 148.4H44.3996L27.3996 140Z" fill="#FFEAE7"/>
<path d="M336.6 141L317.2 134.8L316 134.4L315 134L321.8 124L328.6 113.8L329.2 113L330 112.2L338 114.2L346 116L351 117.6L356.2 119.2L362.2 122.2L368.2 125.2L367.8 125.6V126L362.6 136.6L357.6 147.4H356.8L356.2 147.2L336.6 141Z" fill="#BEB771"/>
<path d="M106.2 138.8L102.2 132.8L99.6002 130.2L97.2002 127.4L98.4002 126.4L99.6002 125.6L102.4 124L105.2 122.6L114 118.8L122.6 115L124.6 113.6L126.6 112.2L128 119.4L129.4 126.6L129.6 127.8L130 129.2L121.4 136L112.8 143L112 143.8L111.2 144.8H110.4L106.2 138.8Z" fill="#A9805E"/>
<path d="M439 140.4L437.4 138.6L433.4 133.8L429.6 129L426.8 125L424 121L425 120.2L426 119.2L442 105.4L457.8 91.4V91.8H458L462 101L466 109.8L468 115L470.4 120.4L455.8 131.2L441.2 142.2H440.6L439 140.4Z" fill="white"/>
<path d="M56.4002 140.4L56.6002 139.8L66.6002 125.8L76.4002 112L76.8002 112.2L77.4002 112.4L86.0002 122.6L94.6002 132.6L94.4002 133.4L94.0002 133.8L90.8002 134.8L87.4002 135.8L79.0002 136.8L70.8002 137.8L64.4002 139L58.2002 140.4L57.2002 140.8L56.2002 141.2L56.4002 140.4Z" fill="#A9805E"/>
<path d="M504 135.8L489.2 131.8L485.2 131L481.2 129.8L474.8 117L468.6 104.2L470 104L471.4 103.8L498 102L524.4 100.4L524.8 100.8L522 120L519.2 139V139.2L518.8 139.4L504 135.8Z" fill="white"/>
<path d="M614.6 135.6L612.6 132.2L602.4 113.2L592 94V93.6L598.8 91.2L605.6 88.6L606 89.2L606.6 89.8L617.8 110.2L629.2 130.4L629.6 131.4L629.8 132.4L623.8 135.4L617.8 138.4L617.2 138.6L616.4 138.8L614.6 135.6Z" fill="#BEB771"/>
<path d="M387.2 132.8L372.2 129.2L372 129L371.6 128.8L373.4 125L375 121.4L383.4 104.2L391.6 87.2V85.8H392.6L397 100.4L401.2 115L402.6 123.6L403.8 132.2L404.2 134.2L404.6 136.4H402.2L387.2 132.8Z" fill="#A9805E"/>
<path d="M140.6 128L134.6 124.4L134.4 123.2L133.8 122L130.8 106.8L127.8 91.6L128.2 91.4L128.4 91L153.4 94.6L178 98L181.8 100.8L185.4 103.6L175.6 110.8L165.8 118L159.4 123L153 128L150.4 129.2L147.8 130.4L147.4 131L147 131.8H146L140.4 127.8L140.6 128Z" fill="white"/>
<path d="M295 121L278.8 112.2V111.6L279 110.8L283 104.8L287 98.8L290.4 91.8L293.8 84.6L296.4 80L299 75.6H299.6L313.6 89L327.4 102.2V103L319.6 116.4L312 130H311.4L295 121Z" fill="#BEB771"/>
<path d="M51.4 120.4L44 113.8V113L48.6 105.4L53.4 97.8L60 87L66.6 76.2L68 76.4L69.2 76.8L80.2 78.8L91.4 81V81.8L75.2 104L59 126.4L58.6 126.6V126.8L51.4 120.4Z" fill="white"/>
<path d="M86.4004 116.2L80.4004 108.2L84.0004 103.6L87.4004 98.8L98.0004 84L109 69.2H109.8L115.8 80.6L122 92L123.4 98.6L124.8 105L123 106.6L121.2 108.4L112.2 112.8L103 117.2L98.0004 120.6L92.8004 124.2H92.6004L86.6004 116.2H86.4004Z" fill="white"/>
<path d="M12.7996 121.6V121.4L13.3996 117.4L14.1996 113.8L15.7996 107.8L17.3996 102.2L22.5996 88.2L27.7996 74.2V73.8H27.9996L39.9996 78.8L51.7996 83.8L53.3996 84.8L54.9996 85.6L48.1996 96.2L41.3996 106.6L39.1996 110.4L36.7996 114.2L36.1996 115L35.5996 115.8L24.9996 118.8L13.9996 121.8H12.5996L12.7996 121.6Z" fill="#BEB771"/>
<path d="M366 119L362 117L356.6 115L351 113L341.4 110.6L332 108L331.2 107.6H330.4L332.8 104L335.2 100.4H335.4L361.4 92.4L387 84.4L387.2 84.6L387.6 85L383.4 93.8L379.2 102.6L374.8 111.8L370.4 120.8H369.6L365.8 118.8L366 119Z" fill="#FFEAE7"/>
<path d="M408.4 119.6L406.8 109.8L405.2 100.2H405.4L422 93L438.4 85.8H439V96.6L429.4 105.2L419.8 113.8L414.6 116.8L409.2 119.8H408.4V119.6Z" fill="white"/>
<path d="M549.6 109.4L543.6 102.2L541.6 99.4L539.2 96.6L544.6 91.4L550 86.2L560.6 76.2L571 66L571.4 66.2L571.8 66.6L575.6 72L579.2 77.4L585.6 95.2L592 113V114.4L577.2 115.2L562.2 116L559 116.4L555.6 116.8L549.6 109.4Z" fill="#FFEAE7"/>
<path d="M195.8 102.8L184 94.2V93.6L184.4 93L192.4 82.4L200.6 71.6L201.4 71.4L202.2 71L210.2 72.4L218 73.8L218.4 74.2L218.8 74.6L216.6 90.6L214.4 106.6L212.8 108L211.2 109.2L209.4 110.4L207.4 111.4L195.8 102.8Z" fill="white"/>
<path d="M254 110L243.6 109.4L239 104.8L234.6 100.2L229.6 94.2L224.6 88.2L223.4 84.2L222 80V76L222.8 69.4L223.6 62.8L225.2 63.2L226.8 63.6L237.6 65.2L248.2 66.6L260.2 68.8L272.2 71L281.4 72.4L290.6 74V74.2L290.2 74.6L285 85.2L279.6 95.8L274.8 103.2L269.8 110.8H264.6L254 110Z" fill="white"/>
<path d="M224.4 108.4L218.4 108L218.6 106.6V105.4L219.6 97.8L220.4 90.4H221.4V91.4L225.8 96.6L230 101.6L232.8 104.8L235.6 108.2V109L232.8 108.8H230L224.4 108.4Z" fill="white"/>
<path d="M465 90L461.4 81.4V80.8L468.8 63.2L476.2 45.8L476.8 45.4L477.2 45.2L485.2 47.2L493.2 49.2L493.6 49.4L494 49.8L492 64.8L489.6 79.8V98.6H468.6L465 90Z" fill="white"/>
<path d="M493.6 88.4V78L517.6 72L541.6 66L542 66.2L542.2 66.6L537.2 81L532.2 95.4L532 96L531.6 96.6L516.8 97.4L502 98L497.8 98.4L493.4 98.8L493.6 88.4Z" fill="white"/>
<path d="M250.6 222.8L248.6 220.2H249L249.2 219.8L256 214.6L262.8 209.6L271.4 204.2L280 198.8L287.2 194.8L294.4 190.8L301.6 192.8L308.8 194.8L309.2 195.2L309.6 195.6L304.2 209.8L298.6 224L298.2 224.2L298 224.6L275.2 225L252.4 225.4L250.6 222.8Z" fill="#BEB771"/>
<path d="M430.2 212.6L426.2 204.2V203.2L446.4 186L466.6 169L467 169.4L467.4 169.8L472.8 183L478 196L477.8 196.4L477.4 196.8L456.2 208.8L435 220.4H434.6L434.2 220.8L430.2 212.6Z" fill="white"/>
<path d="M80.4 207.4L68 194.6V193.4L77.2 189.2L86.4 185.2H87.8L95.2 190.6L102.6 196.2L109.2 202L115.6 207.8L115.2 208.2L114.6 208.6L104.2 214.6L93.6 220.2H92.2L80.2 207.4H80.4Z" fill="white"/>
<path d="M509.4 207.4L503 197L503.4 196.6L504 196L509.8 194.4L515.6 192.8L516.8 194.2L518 195.8L523.8 202.2L529.4 208.8V209L529 209.2L523.2 213.2L517.4 216.8L516.8 217.2L516 217.6L509.4 207.4Z" fill="white"/>
<path d="M244 212.6L244.4 209L244.8 193.8L245.2 178.4L245.6 177.6L246 177L262.4 181.6L278.8 186.2L282.2 187.4L285.6 188.4L283.8 189.6L281.8 190.6L271.8 196.6L261.8 202.6L253.4 208.8L245.4 214.8L244.4 215.4L243.8 216L244 212.6Z" fill="white"/>
<path d="M533.2 201.4L524.2 188.8L523.8 188L523.4 187L527.8 185.8L532.2 184.4L545.6 180.4L559 176.2L559.8 177L560.6 177.8L569.2 192L578 206.4H577.8L577.6 206.8L560.8 210.4L543.8 213.8H542.2L533.2 201.4Z" fill="white"/>
<path d="M407.2 211L394.8 209V208.6L406.8 204.6L418.8 200.4L419.2 200.2L419.8 200L420.2 201L420.4 202.2L421.6 207.8L423 213.4H419.6L407.2 211Z" fill="white"/>
<path d="M169.6 200.4L157.8 192.4L157 188.6L156.4 185L156.8 184.8L170.2 185.4L183.8 186.2L184.2 186.8L184.8 187.4L186 190.2L187 193.2L189.6 194L192 194.8V196L187.4 202.4L182.8 208.8H181.4L169.6 200.4Z" fill="white"/>
<path d="M364.6 205.8L364.4 205.2L359.8 191.2L355.2 177.2L355.6 177L361.2 175.8L367.2 174.8L380.2 170.2L393.2 165.8L399.6 163.8L406 162H408.8L410.8 174.6L412.8 187.4L413.6 192.2L414.4 197.2L414 197.4L413.8 197.8L391 201.8L368.4 205.8H366.6L365 206.4L364.6 205.8Z" fill="white"/>
<path d="M115.6 199.6L109.6 194.4L103.6 189.6L97.4004 184.6L95.4004 183.4L93.4004 182.2V181.6L106.4 176.2L119.2 170.8L120.6 171.6L122 172.4L133 181.4L144 190.4V191.2L142.6 192L141.2 193L134 197.2L127 201.4L124.2 203.2L121.2 204.8L115.6 199.6Z" fill="#BEB771"/>
<path d="M577.2 196L572.4 188L569.2 182.6L566.2 177.4L566.4 177.2L566.8 176.8L590.8 171.4L614.8 166V166.2L615.2 166.4L612.2 183.6L609.2 200.8L608.4 201.4L607.4 202.2L596.6 203L586 203.6L584 204L582 204.4L577.2 196Z" fill="#BEB771"/>
<path d="M334.8 195.2L313.4 187.6L313.2 187.4L312.8 187L318.4 171.2L323.8 155.2L325.8 149.8L327.8 144.4L328.4 143.8L328.8 143.4L333.8 145.2L338.8 147L345.4 150.4L352 153.8L350.8 157L349.6 160L348 163.8L346.4 167.6L352 185L357.8 202.4V203H356.2L334.8 195.2Z" fill="white"/>
<path d="M121.8 249L114.6 241.6V240.6L117 241L119.4 241.4H129.4L139.4 241.6L141.4 242L143.4 242.4L136.2 249.6L129 256.8L121.8 249.2V249Z" fill="white"/>
<path d="M34.2 253.6L34 253.4L41 249.6L48.2 245.8H49.2L51.8 249.8L54.4 253.4L44.4 253.6L34.4 253.8L34.2 253.6Z" fill="white"/>
<path d="M345.6 250.2L340.8 246.2L335.6 241.6L330.2 236.8V235.4L340.6 223.2L350.8 211L352.4 209.2L353.8 207.6L360.8 209.8L367.6 212.2L368.2 212.6L368.8 213.2L359.6 233.4L350.6 253.8V254L350.4 254.2L345.6 250.2Z" fill="white"/>
<path d="M57.9998 247.6L50.3998 241.6L50.1998 241L49.7998 240L52.3998 232.4L55.1998 224.6L53.5998 223L52.1998 221.2L47.3998 216L42.7998 210.6L43.1998 210L43.7998 209.6L52.7998 203.6L61.5998 197.6L64.5998 200.8L67.9998 204L83.5998 220.4L99.5998 237V238L83.1998 245.8L66.7998 253.6H65.7998L57.9998 247.6Z" fill="#FFEAE7"/>
<path d="M357.8 251.4V251.2L365.8 231.6L373.8 211.8L374 211.4L374.4 211.2L384.8 212.6L395.2 214H396L396.8 214.4L395.6 219.8L394.4 225L392 236.6L389.6 248.2L389.2 248.6L388.8 249L374.2 250.4L359.6 251.6H357.8V251.4Z" fill="white"/>
<path d="M276 248.8L266.6 248L266.4 247.8L261.2 239.8L256 231.8L256.4 231.2L256.6 231L276.8 230.6L297 230.4L295.8 233.4L294.6 236.6L292.2 243.2L289.8 249.8H287.8L285.8 249.6L276.2 248.8H276Z" fill="white"/>
<path d="M399 231.8L399.6 214.8L414 216.8L428.2 218.8L428.8 219.4L429.4 220L434.2 232.6L439 245.4V245.8L436.4 246.2L433.6 246.4L419.6 247.2L405.6 247.8L402 248.2L398.6 248.6L399 231.8Z" fill="white"/>
<path d="M587.6 244.4L585.8 241L583.6 237L581.4 232.8L578 226.4L574.6 220L573.6 218.2L572.6 216.6L572.8 216.2L573.2 215.8L589.2 212.2L605.2 208.8H606L606.4 211.2L606.6 213.6L607 218.2L607.4 222.8L612.6 228.4L617.6 234V235L614.2 236.6L610.8 238L600.8 243L590.6 247.8H589.6L587.6 244.4Z" fill="white"/>
<path d="M126.8 234.4L112.8 233.8L111.2 233.2L109.4 232.4L103.4 227.8L97.4004 223.2L98.4004 222.6L99.6004 221.8L106 218.4L112.4 215L122 209.6L131.6 204L141.4 198L151.2 192L160.2 199.4L169.2 206.8L171.8 208.8L174.4 211L167.6 217.4L161 223.8L155 229.4L149.2 235H144.8L140.4 234.8L126.8 234.4Z" fill="white"/>
<path d="M472.4 221.8L464 209.8L464.4 209.4L465 209L477.6 201L490.2 193.4H491L491.6 193L503.6 209L515.6 225L514.6 225.6L513.6 226L497.6 230L481.8 233.8H480.8L472.4 221.8Z" fill="#BEB771"/>
<path d="M322.8 228.8L319.6 225L316.4 221.2L313.2 217.2L311.2 214.6L309.2 211.6V210.2L312.4 203L315.6 195.6H315.8L316 195.2L332 200.4L348.2 205.6V206.2L347.8 206.8L337.2 219.6L326.8 232.4H326L322.8 228.8Z" fill="#BEB771"/>
<path d="M203.2 230L201.2 228.6L193 222L184.6 215.6L184.2 215.2L190 208L195.6 200.8L196 200.4L196.4 199.8L217.6 198.8L239 197.6L239.2 198L239.6 198.2L240 205.8L240.4 213.6L235.6 216L231 218.4L218.2 225L205.4 231.6L203.2 230Z" fill="#FFEAE7"/>
<path d="M336 408L322.2 405.6L321.8 400.4L321.4 395.4L321 389.4L320.8 383.4L327.2 376.4L333.8 369.4L335.4 371.2L336.8 373L344.8 381.6L353 390.2L358.2 395.8L363.6 401.4V402.6L357 406.6L350.4 410.4H350L349.8 410.2L336 408Z" fill="white"/>
<path d="M225.2 406.6L221.2 405.6H220.8V405.2L228.8 394.4L236.8 383.4H238L240 384.2L242 384.8L241.6 385.8L241.2 386.8L236.6 397.2L232 407.8H229.4L225.2 406.6Z" fill="white"/>
<path d="M139.6 397L136.2 388.8L141.6 380.8L146.8 372.8L147.2 372.6H147.6L152.8 383.4L158 394.4L151.4 399.4L144.6 404.6L143.8 405L143 405.2L139.6 397Z" fill="#A9805E"/>
<path d="M403 398.6L399.4 391.8V390.8L415.8 373.2L432.2 355.6H433.4L441.4 374L449.4 392.6H449.2L449 393L428.6 399L408.4 405.2H406.8L403 398.6Z" fill="#BEB771"/>
<path d="M182.2 398.6L163.8 394.6L163.4 394.2L163.2 393.8L157.2 381.8L151.2 369.8L154.2 365.8L157.2 361.8H158.2L178.8 380L199.4 398.4L200.8 399.8L202.2 401.4V402.6H200.6L182.2 398.6Z" fill="#A9805E"/>
<path d="M75.6 393.4L66 385.4V371.4L72.4 367L79 362.8H80.6L92.8 371.6L104.8 380.4V381.2L95.2 391.2L85.4 401.4L75.6 393.4Z" fill="#FFEAE7"/>
<path d="M199 389.8L186 378L185.2 377.4L184.4 376.6L182.4 371.2L180.4 366L192.2 356.8L203.8 347.4H204.8L218.4 356.4L232 365.6L237 368.8L241.8 372L241.6 372.4L241.4 372.8L226.8 386.8L212.2 401L199 389.6V389.8Z" fill="#BEB771"/>
<path d="M26.6 398.6L26.2 397.8V389L26 380L19 376L12 372.2L16 368.6L20 364.8L21.4 364L22.8 363L38.4 366.4L54 370L57.8 370.8L61.4 371.6V386L44.2 392.8L26.8 399.6L26.6 398.6Z" fill="#FFEAE7"/>
<path d="M364.4 394L360.2 389.6L348.6 378L337.2 366.4L337.8 365.4L338.2 364.4L343.6 358.6L349.2 352.8L357.2 350.6L365 348.2L365.2 348.6L373.8 361.8L382.2 374.8L386.2 380.4L389.8 386L389.6 386.6L389.2 387.2L379.2 393L369.6 399H368.8L364.4 394Z" fill="white"/>
<path d="M582 393.6L561.2 390.6L561 390.4L560.6 390L564.6 373.6L568.2 357L580.2 356.8H592.6L593.2 358.8L593.8 360.8L598.4 378.2L603 395.8L602.8 396.2L602.6 396.6L582 393.6Z" fill="white"/>
<path d="M505.2 392L502 389.6L495.6 384.8L489.2 380L481.6 373.6L474 367.2L471.6 365.2L469.2 363.2L480.6 352L491.8 340.8L510 348.2L528.2 355.8L528.4 356.4L528.6 357L519 375.6L509.4 394.4H508.4L505.2 392Z" fill="#FFEAE7"/>
<path d="M552.6 389.4H551.4L542.8 388.2L534 387.2L528.4 386L522.6 384.8V384.6L522.2 384.2L529 370.4L535.6 356.6H546.8L558.2 356.8L558.4 357.2L558.8 357.8L557.8 372L556.8 386.4V389.8H554L552.6 389.4Z" fill="#BEB771"/>
<path d="M390.6 376L384.2 364.6L379.8 356.6L375.6 348.8L376 348.4L376.6 347.8L400.8 342.8L425 337.8L425.6 338.4L426 339L428 343.6L430 348.4L429.6 349.2L429.2 349.8L413.8 367.8L398.6 385.8L397.8 386.6L397 387.4L390.6 376Z" fill="#BEB771"/>
<path d="M105.2 369.6L82.2 353.6L81.6 353.2L81 353L81.6 352.2L82.2 351.6L102.2 342.2L121.8 332.8L122.6 333.2L123.6 333.4L136.4 345.2L149.2 356.8L148 358.6L146.8 360.2L138 373.2L129.2 386H128.4L105.2 369.6Z" fill="white"/>
<path d="M288 379.2L282.6 378.2L282.4 378H282.2L283.2 371.6L284.4 365.2L284.8 364.2L285.2 363L291.2 369L297 375L296.2 377.6L295.6 380.2H293.4L288 379.2Z" fill="#A9805E"/>
<path d="M306 375.4L300 370.4L293.8 365L287.8 359.6L286.2 358.2L284.8 356.8L289.2 347.4L293.6 338H318L330.8 343.2L343.6 348.2L344.2 348.8L344.8 349.4L333 362.2L321.2 374.8L319.6 375.8L318 376.8L315 378.6L312 380.2L306 375.4Z" fill="white"/>
<path d="M442.2 360.6L435.6 345.4L433.6 340.4L431.6 335.4L443.2 329.8L455 324L470.8 330.8L486.6 337.4L486.8 337.6L487.2 338L478.6 346L470 354.4L465.4 358.8L460.8 363.4L455.2 369.4L449.6 375.8H448.8L442.2 360.6Z" fill="white"/>
<path d="M261.4 372L248 369.6V359L265 353.6L281.8 348.4L282.2 348.6L282.4 348.8L281.4 357L280.2 365.2L279.6 369.8L279 374.6H277L275 374.4L261.4 372Z" fill="#A9805E"/>
<path d="M43.5996 362.2L27.5996 358.6L27.1996 358.4V358.2L25.5996 344.8L24.1996 331.4L23.7996 328.6L23.5996 325.8H35.5996L52.5996 341L69.3996 356L70.1996 356.8L71.1996 357.6L67.3996 360.4L63.5996 363.2L61.5996 364.6L59.7996 366L43.5996 362.2Z" fill="#BEB771"/>
<path d="M161.2 354.4L149.2 344.2V343L154.8 332.6L160.4 322.4L163.6 316L166.8 309.6L168.4 306L169.8 302.2L176.2 305.4L182.6 308.6L182.2 310L181.8 311.4L179.8 318.8L177.8 326.2L177 332L176 337.8L175.4 343.4L174.8 349.4L174.4 357L174 365H173.2L161.2 354.4Z" fill="#A9805E"/>
<path d="M224.8 349.6L211.2 336.4V335.6L219.2 327.6L227.4 319.4L227.8 320L228.4 320.4L238 337.6L248 354.8L243.8 358.8L239.8 362.8H238.4L224.8 349.6Z" fill="#FFEAE7"/>
<path d="M183.6 334.6L187.6 311.4H187.8L188 311L201.2 317.6L214.4 324.2V324.6L214 325.2L197.2 341.4L180 358H179.2L183.6 334.6Z" fill="#FFEAE7"/>
<path d="M243.6 334L232.8 315.4L233.6 315L234.2 314.6L242.2 312.6L250.2 310.4L250.8 310.8L251.4 311.4L258.2 323.6L265 335.6L267.2 340L269.4 344.4V346.2L262.6 349.4L255.8 352.8H254.2L243.6 334Z" fill="white"/>
<path d="M560 349.6L538.4 348.6L538 348.2L537.8 348L534.8 343.4L531.8 338.6V336.6L534.4 328.2L537.2 319.8V319.6L537.4 319.4L552.8 322.2L568 325.2L586.8 329.2L605.6 333.6H605.8L606 334L600.2 342.4L594.2 350.8H581.4L560 349.6Z" fill="white"/>
<path d="M66.7998 344.6L62.7998 341V340L81.3998 326L100.2 312L100.8 311.6L101.6 311.2L109.2 320.4L116.8 329.8L117 330.2L117.2 330.8L116 331.2L114.8 331.4L93.3998 339.8L71.9998 348.2H70.7998L66.7998 344.6Z" fill="white"/>
<path d="M374 342.4L365.2 341.2H360L359.8 340.4L359.4 339.4L363.6 326.4L368 313.4L368.4 312.8L369 312.4L381.6 315L394.4 317.6L394.8 318L395 318.6L400.4 324.6L405.8 330.4L405.6 330.6L405.2 330.8L397.2 337.4L389 343.8H382.8L374 342.4Z" fill="white"/>
<path d="M506.8 337.6L491 331.6L489.2 327.2L487.4 323L482.4 312.2L477.4 301.2L474.4 294.4L471.6 287.4L474.8 281.4L478 275H489.4L500.8 274.6L501.4 275.6L501.8 276.6L507.4 284.2L513 291.6L521.8 304.6L530.6 317.4V318.6L527.2 331.2L523.8 343.8H522.6L506.8 337.6Z" fill="white"/>
<path d="M272 337L269 330.6L262.8 319.8L256.8 309V308.2L274.8 302.6L293.2 297L294 297.2L294.8 297.6L295.8 302L297 306.4L300 318.4L303.2 330.2L290 336.4L276.8 342.6L276 343L275.2 343.2L272 337Z" fill="white"/>
<path d="M132.4 334L124.4 326.4V325.8L124 325.2L138.6 309.6L153 293.8H153.4L158.6 296.2L163.6 298.6L164 298.8L160.4 306.4L156.8 314L149 327.6L141.2 341.2H140.4L132.4 334Z" fill="white"/>
<path d="M346.2 339.4L342.2 338.2L325 333.6L308 329L303.8 312.4L299.6 296V294.8L306.6 292.8L313.6 291.2L315.4 292.6L317.2 294.2L322.8 299.4L328.8 304.6L336 310.6L343.4 316.6L349 320.6L354.6 325V326.8L353 333.6L351.6 340.2H351L350.4 340.6L346.4 339.4H346.2Z" fill="#BEB771"/>
<path d="M411.6 336.6L411 335.2L407.4 326L403.8 317V294.6L404.4 294.2L405 294L426.6 306L448 317.8L447.6 318L430.2 328L412.6 338H412.2L411.6 336.6Z" fill="#FFEAE7"/>
<path d="M50.6004 330.6L45.8004 326.4L45.6004 325.4L45.4004 324.4L46.4004 314.4L47.6004 304.6L55.4004 300.4L63.0004 296L72.0004 291L80.8004 286L81.6004 287L82.4004 287.8L89.4004 296.4L96.4004 304.8L97.2004 306L98.0004 307.2L93.6004 310L89.2004 312.8L81.6004 318L74.0004 323.2L64.8004 329.2L55.6004 334.8H55.4004L50.6004 330.6Z" fill="white"/>
<path d="M468 322.4L452 315.8L452.4 315V314.4L460.6 303.8L468.6 293.2L469.2 293.6L469.6 294.2L471.8 299.6L474.2 305L479.6 317L485.2 328.6V329H484.2L468 322.4Z" fill="#A9805E"/>
<path d="M592 324L577.6 320.8H577.2V286.4L581.2 286L585.2 285.6L594.6 284.8L603.8 284.2H605.4L607 284.6L612 300.6L617 316.6L613 321.6L609.4 326.8H608L606.4 327L592 324Z" fill="white"/>
<path d="M106.4 307.2L94.7998 294.4V293.8L94.9998 293.4L103.6 286.2L112.4 278.8L120.8 271.6L129.2 264.4L136.2 270.6L143 277L147.2 281L151.2 285L149.4 287L147.4 289L133.2 304.4L118.8 319.8H118.4L118 320.2L106.4 307.2Z" fill="white"/>
<path d="M349.6 313.2L340.6 306.4L332.6 299.4L324.8 292.6L322.8 291L321.2 289.4V289H321.6L343 283L364.2 277L364.6 277.4L365 277.8L362.6 297.2L360.2 316.6L360 318.4L359.6 320.2H358.8L349.6 313.2Z" fill="white"/>
<path d="M566.8 319.4L565 319L552.2 316.6L539.2 314.2L539 314L538.8 313.8L542.4 301.8L546.2 289.8L546.6 289.2L547 288.6L557.2 287.8L567.2 286.8H571.4V320.2H570L568.6 320L566.8 319.4Z" fill="white"/>
<path d="M212.4 315.4L209 313.8L208.6 307.2L208.2 300.6V286.6L214.2 271.8L220.6 257H222L241 275.4L260.2 293.6L262.8 296L265.2 298.2L265 298.6H264.6L252 301.4L239.2 304.2L228 310.6L216.8 317H216.4L216 316.8L212.4 315.4Z" fill="white"/>
<path d="M385.6 312.4L373.6 310L371 309.6L368.6 309.2V279.8H394.8L395.2 281.6L395.6 283.4L397.6 297.4L399.4 311.4L399.6 313.4L400 315H397.8L385.6 312.4Z" fill="#BEB771"/>
<path d="M525.2 301.4L518.2 291L512.8 283.8L507.4 276.4L507.2 275.6L506.8 274.6H542L541.8 276.6L541.4 278.2L537.2 294.2L532.8 310.2L532.4 311L531.8 311.8L525.2 301.4Z" fill="white"/>
<path d="M182.8 302.4L164.4 293.8L164 293.6L163.6 293.2L170.2 285.2L176.8 277L179.4 273L182 269H183L193.4 275.4L203.8 282H204.2V282.4L203.6 296.8L202.6 311.2H201.2L182.8 302.4Z" fill="white"/>
<path d="M426 299L404 289V282.6L411.2 281.2L418.2 279.8L428.4 269.6L438.8 259.4L455.4 265.4L472 271.4L472.6 272L473 272.6L460.8 290.6L448.4 308.2L448 308.6L447.6 309L426 299Z" fill="white"/>
<path d="M24.7998 282.2L5.7998 265.6V264.4L13.9998 260.4L22.3998 256.2L40.7998 257.4L59.1998 258.6L59.9998 258.8H60.7998L69.3998 270.4L78.1998 282L61.5998 290.4L45.1998 299H43.5998L24.7998 282.2Z" fill="#FFEAE7"/>
<path d="M262 285.6L252 274.6L259.6 264.2L267.2 253.6H286.8V256.4L285.8 264.2L284.8 271.8L284.4 282.8L284 293.6L278.4 295L273 296.4H271.6L262 285.6Z" fill="#BEB771"/>
<path d="M290.6 284V276.4L291.4 269L292 261.8L292.8 261.4L293.6 261.2L313 269.2L332.4 277.2L332.6 277.6H332.8L328.2 279.4L323.6 281L307.6 286.4L291.4 292H290.6V284Z" fill="#BEB771"/>
<path d="M149.8 273.4L139.8 256L139.2 254.8L138.6 253.6L146 246.6L153.2 239.8L156.2 237L159.2 234.2L165.2 241.8L171.2 249.4L176.4 256L181.4 262.6L177.4 268L173.8 273.6L167.2 282L160.6 290.4H160L159.4 290.6L149.8 273.4Z" fill="white"/>
<path d="M83.6002 278.4L74.6002 268L71.4002 264.2L68.2002 260.6L68.6002 260.2L69.0002 260L86.4002 250.4L103.8 240.8L113.8 249.4L123.6 258.2V259.2L108.4 273.8L93.4002 288.4L92.8002 288.6L92.4002 288.8L83.6002 278.4Z" fill="#BEB771"/>
<path d="M547.2 280.2V278.2L549.4 247.8L551.8 217.4L552 216.6L552.2 216L557.8 214.8L563.4 213.8L563.6 214L563.8 214.4L565.4 222.4L567 230.4L567.6 255.6L568.2 280.8L567.8 281.2L567.4 281.6L557.4 281.8L547.4 282.2L547.2 280.2Z" fill="white"/>
<path d="M574 278L573.4 275L573.2 256.4L572.8 237.8L572.4 235.4L572 233H573.2L579.2 243.4L585.2 253.8L589.6 265.4L593.8 276.8V277L584.4 279L575 281H574.2L573.8 278H574Z" fill="white"/>
<path d="M198.4 269.6L190.4 261.6L176.4 246.4L162.6 231.2L167.8 226.2L173.2 221L175.2 219.4L177.2 217.6L178 218.2L178.8 218.6L198.4 234.2L218 250L218.4 250.4L219 250.8L212.8 264.2L206.8 277.6H206.4V277.8L198.4 269.6Z" fill="#A9805E"/>
<path d="M363 273.4L351.2 269.6L351 269.4L350.6 269L353 263L355.4 256.8L357.4 256.4L359.4 256L373.4 254.8L387.4 253.6L402.2 252.6L417 251.6L425 251.2L433.2 250.8V251.8L423 263.4L412.6 275V275.2L395.8 276.2L379.2 277.2H374.8L363 273.4Z" fill="#FFEAE7"/>
<path d="M600.6 275.2L599.6 273.2L595.8 264.6L592 256V255.4L614.8 244L637.8 232.6L638.2 232.8L636 248L633.8 263.4L633.2 263.8L632.6 264.4L617.2 270.8L601.6 277L600.6 275.2Z" fill="white"/>
<path d="M335.6 272.6L330 270.2L311.4 262.2L292.8 254L292.6 253.8L292.4 253.6L299.2 236.4L306.2 219.4L306.6 218.8L307 218.4L312.8 225.6L318.6 232.8L327.2 241.2L335.6 249.6L340.2 253.4L344.6 257L346.6 258.4L348.2 259.8V261L345.2 267.6L342.4 274.4L341.8 274.8L341.4 275.2L335.6 272.6Z" fill="white"/>
<path d="M240.6 265.4L232.6 261.2L222.6 248.8L212.6 236.4V235.4L223.2 229.4L233.8 223.2L237.4 221.2L241.2 219L251.6 235L262 251.2V251.6L255.8 260.6L249.4 269.6H248.6L240.6 265.4Z" fill="white"/>
<path d="M482.2 266L471.4 262.4L471.2 262.2L471 262L475.6 250L480.2 238L480.6 237.4L481 237L497.6 234.6L514 232.4H514.4V232.8L504.4 251.2L494 269.6H493.2L482 266H482.2Z" fill="#BEB771"/>
<path d="M505.8 265.6L504.6 261.6L514.6 243L524.4 224.4L534.4 223.4L544.2 222.4V222.8L544.6 223V269.6H507L505.8 265.6Z" fill="#BEB771"/>
<path d="M456.4 257.4L445.2 253.8V221.2L453.2 216.2L461.2 211.4H462.2L468.4 224.4L474.8 237.4L471.4 249L468 260.6L467.8 260.8L467.6 261L456.4 257.4Z" fill="#FFEAE7"/>
<path d="M482 501.4L476 497L466.4 490.4L457 484L462.6 472.8L468.2 461.6H469.2L484.4 470.2L499.6 479L499.8 479.2L494.4 492.2L489 505.4H488.6L488 505.6L482 501.4Z" fill="white"/>
<path d="M69.5996 492L61.5996 485.4L48.3996 484.6L35.5996 484L32.9996 483.6L30.5996 483.2L30.9996 468.4L31.3996 453.6L31.7996 453.4V453L50.7996 459L69.3996 465L70.7996 465.6L71.9996 466.6L81.5996 475.4L91.1996 484.2V484.6L91.5996 485L84.5996 491.8L77.7996 498.6L69.5996 492Z" fill="#A9805E"/>
<path d="M272 496.4L268 494.8L267.6 494.4L267.4 494.2L277.8 483.4L288.4 472.8L297.2 462.8L306.2 453.2H306.8L314 459L321 464.8L326 475.2L330.8 485.4V485.6H330.6L303.8 491.8L277.2 498H276.2L272.2 496.4H272Z" fill="white"/>
<path d="M370 492.6L364.6 487.2L367.2 485.6L370 484L372.6 482.2L375.2 480.6L375.6 481.4L376.2 482.2L377.2 486.8L378.4 491.4L377 494.8L375.4 498L370 492.6Z" fill="#FFEAE7"/>
<path d="M523.6 493V492.6L525.6 485L527.6 477.6H531L534 478L537 478.4L545.2 485.4L553.6 492.4V493.6H523.6V493Z" fill="white"/>
<path d="M248 489L238 486L237.6 485.6L237.2 485.2L239.6 479.6L241.6 474L244.8 467L247.8 459.8L253.8 461.6L259.6 463.2L270.6 466.6L281.6 470.2V471L270.6 481.6L259.6 492.2H257.6L247.8 489H248Z" fill="white"/>
<path d="M97.9998 482.8L92.7998 477.8V474.6L94.3998 463.8L95.9998 453L98.9998 449.6L102 446.2H102.8L105.6 453.4L108.4 460.6L109.4 463.4L110.4 466L117.2 474.6L124 483V483.2L123.6 483.4L113.8 485.6L104.2 487.6H103.4L97.9998 482.8Z" fill="#A9805E"/>
<path d="M375.6 461.4L368.6 435.2L368.8 434.8L369.2 434.6L389.6 440.2L410 445.6L410.4 446L410.8 446.6L410.2 466L409.8 485.4H409.4V485.8L399.4 486.4L389.4 487.2L386 487.4L382.4 487.8L375.6 461.4Z" fill="#A9805E"/>
<path d="M578 482.2L558.6 477.6L558.2 477.2L558 477L560 459.2L562 441.6L562.4 441L562.8 440.6L575.6 438L588.4 435.2L598.6 433.2L608.8 430.8L609.2 431.2H609.6L605.6 456.6L601.6 481.8L601.4 484.4L600.8 487.2H599.2L597.4 487L578 482.2Z" fill="#A9805E"/>
<path d="M335.4 483.2L334.2 480.4L328.2 467L322.4 453.6V452.4L333.4 450.6L344.6 449L345.8 448.6H346.8L353.6 442.6L360.4 436.6L361 438L361.6 439.4L368.2 455.4L374.8 471.4L374.2 472.4L373.4 473.4L368.6 478.6L363.8 483.8L352.4 484.8L341 485.8H336.6L335.4 483.2Z" fill="white"/>
<path d="M412.8 484.6V483.6L414.6 474L416.2 464.4L414.8 456L413.4 447.4V447.2L413.8 446.8L431 451.6L448.4 456.2L454 457.8L459.6 459.2L460 460L460.2 460.8L455.6 471.8L450.8 483L444.8 483.4L438.8 484L425.8 484.8L412.8 485.6V484.6Z" fill="#FFEAE7"/>
<path d="M126.2 480L124.2 476.6L120.6 470L117 463.2L118.2 462.4L119.4 461.4L126.8 457.4L134 453.4L142 449.6L149.8 446L150 446.2L150.2 446.6L153.2 458L156.2 469.6V471.2H142.2L139.2 473.6L136 476L135.2 477.2L134.2 478.2L131.2 480.8L128.2 483.4L126.2 480Z" fill="white"/>
<path d="M543.8 475.2L537.4 473.2V472.8H537L541 455.2L544.6 437.6H544.8L545 437.2L550.8 439.2L556.4 441V443.4L554.4 460.4L552.2 477.6H550L543.8 475.2Z" fill="white"/>
<path d="M74.8004 457L63.6004 442.2V441.4L63.4004 440.6L66.6004 434.6L69.8004 428.4L70.6004 427.8L71.4004 427.2L78.6004 426L85.8004 424.6L86.6004 425.6L87.2004 426.4L91.6004 434.2L96.0004 442V443.4L91.4004 457L86.8004 471L86.4004 471.2L86.0004 471.8L74.8004 457Z" fill="white"/>
<path d="M510 469L494.8 467.6L494.4 467.2L494.2 467L492.6 460.8L491 454.6L498.4 434.6L506 414.8L506.8 415.2L507.8 415.6L523.8 425.6L539.6 435.4V437.2L536.4 451.4L533 465.8L532.4 468.2L531.8 470.6H528.4L525.2 470.4L510 469Z" fill="white"/>
<path d="M182 462.8L178 456.2L183.2 449.4L188.2 442.4L188.8 442L189.4 441.6L194.6 446.2L199.6 450.8V452L193.2 460.6L186.8 469.2H186L182 462.8Z" fill="#A9805E"/>
<path d="M268 461.2L251.2 456L250.4 455.8L249.4 455.4L252 449.4L254.6 443.4L256.6 438.4L258.6 433.4L259.2 433.2L259.6 432.8L273.6 433.4L287.6 434L292.2 434.4L296.8 434.8L299.4 442.2L302 449.6L294 458.2L286 466.6H285.2L268 461.2Z" fill="#FFEAE7"/>
<path d="M465.2 453.6L447.6 448.4L448 446.2V444L450 430.2L451.8 416.6L452 416.4L452.4 416L464 416.8L476 417.4L487.6 417.8L499.2 418.2L499.4 418.6L499.6 419L491.8 438.8L484 458.6H483.4L482.8 459L465.2 453.6Z" fill="white"/>
<path d="M105.6 441.4L96.6004 424.4V423.6L96.4004 423L114.4 418L132.8 413H133.8L140.6 426.8L147.2 440.8L147 441.4L146.8 442L131 450.2L115.4 458.2H114.6L105.6 441.4Z" fill="white"/>
<path d="M223.6 453.2L207 448.2H206.2L201 441.4L195.8 434.6V434L195.6 433.6L206 422L216.4 410.4H217.2L233.2 415.6L249.2 420.6L254.2 422.2L259.2 423.8V425L250.4 441.6L241.8 458.4H240.4L223.6 453.2Z" fill="white"/>
<path d="M49.6002 452.4L36.8002 449L30.2002 444L23.8002 439L23.4002 438.6L23.2002 438.2L32.6002 428.6L42.0002 419.2L45.6002 423.8L49.0002 428.6L55.6002 437.6L62.2002 446.4L62.8002 448.8L63.4002 450.8V455.8H62.4002L49.6002 452.4Z" fill="#A9805E"/>
<path d="M157.4 451.6L156.2 448.6L148.8 430L141.2 411.6L141.6 411.4L151.2 407.4L160.8 403.4H162L179.4 413L196.8 422.6L197 422.8L197.2 423L185.6 438.2L173.6 453.2L171.8 453.4L169.8 453.8L164.4 454.2L158.8 454.6L157.4 451.6Z" fill="#FFEAE7"/>
<path d="M308 445L304.6 439L308.6 423.4L312.6 407.8L329.6 411.6L346.6 415.4L347.6 416.8L348.4 418.2L352.8 426.4L357.2 434.6L355.8 435.2L354.2 435.8L333 443.6L312 451.4H311.2L308 445Z" fill="#A9805E"/>
<path d="M428.4 446.2L414.4 442V426L414 409.8H414.6L431.2 404.6L447.6 399.4H449.4L449 401.8L448.8 404.2L446 426.2L443.4 448.4L443 449.4L442.6 450.6L428.4 446.2Z" fill="#A9805E"/>
<path d="M396.4 435.6L386.4 433.6L375.2 431.6L364 429.4L363.4 428.4L362.8 427.4L360 421.4L357.2 415.2L357.6 414.8V414.4L370.4 405L383.2 395.6H384L394.8 401.8L405.4 408L407.4 409L409 410V438L407.8 437.8H406.8L396.4 435.8V435.6Z" fill="white"/>
<path d="M289.6 429.2L279.6 425.2L283.6 423.2L287.6 421.2L296.2 417.6L304.8 414.2L305.2 414.4L305.4 414.8L302.8 424L300 433V433.2L289.6 429.2Z" fill="white"/>
<path d="M547.6 428.8L538.8 424.4V423.6L548.8 410.2L558.8 397H560.6L582.6 400.2L604.4 403.2V403.4L604.6 403.6L607.2 412.6L609.8 421.6L609.4 422L609 422.4L584 427.6L558.8 432.8L557.6 433L556.4 433.4L547.6 428.8Z" fill="#FFEAE7"/>
<path d="M47.9998 417.4L38.7998 406.4V404.8L50.7998 396.4L62.7998 388H63.5998L75.1998 402L86.5998 416V417L73.1998 422.4L59.7998 427.6L58.5998 428L57.1998 428.2L47.9998 417.4Z" fill="white"/>
<path d="M266.8 419.6L260.8 417.4L260 417L259 416.8L266.2 409.2L273.4 401.8L281.2 392.6L289 383.4H291.2L302.2 385.2L313.2 386.8H313.4L313.6 387.2L310 397.2L306.2 407.2L304.2 408L302.4 408.6L295.2 411.4L287.8 414.2L280.4 418L272.8 421.6L266.8 419.6Z" fill="white"/>
<path d="M521.2 415.8L510.4 410.4V409L515.2 399.8L520 390.6L521.2 391L522.4 391.2L528.4 392.4L534 393.6L543.2 394.8L552.4 395.8L552.2 396.4L552 397L542.4 409L532.8 421H532.2L521.2 415.8Z" fill="#BEB771"/>
<path d="M190.8 412.6L180.4 407.4L179.8 406.6L179 406L179.8 404.8L180.4 403.6L195.6 406L210.8 408.4L211.2 408.8L211.4 409.2L207 413.6L202.6 418H201.2L190.8 412.6Z" fill="white"/>
<path d="M91.3996 415.6L90.9996 414.6L90.1996 411.2L89.5996 407.8L100.4 395L111.4 382.2H112.2L123.2 388L134.4 394L135 394.8L135.6 396L136 400.2L136.4 404.6H135.6L114.6 410.4L93.9996 416L92.9996 416.2L91.7996 416.6L91.3996 415.6Z" fill="white"/>
<path d="M242.8 410.8L237.4 408.8V407.6L243.4 394L249.2 380.6L250 379L250.8 377.4L266.2 379.6L281.4 382L282.2 382.2L283 382.6L279.6 385.4L276.2 388.2L270.8 393L265.2 397.8L257.2 405.4L249.2 413H248L242.8 410.8Z" fill="white"/>
<path d="M462 408.4L460.4 405L456 394.6L451.6 384.2L454.4 380.8L457 377.4L461.4 372.8L465.6 368L477.2 377.8L488.6 387.4L495.8 392.4L502.8 397.2L500.2 402.6L497.6 407.8L496.4 408.2H495L481 409.8L467 411L465 411.4L463.4 411.8L462 408.4Z" fill="#FFEAE7"/>
<path d="M86.4004 525.4L71.4004 521.4L70.6004 520.8L70.0004 520.4L69.2004 513L68.4004 505.6L68.8004 505.2L89.2004 498.4L109.4 491.4L110 491.8L110.4 492.2L107.2 506.6L104.2 520.6L103.2 525L102.2 529.4H101.4L86.4004 525.4Z" fill="#BEB771"/>
<path d="M506.4 513.2L497.8 497.8L501.8 487L505.8 476.4L506.2 475.6L506.8 474.8L514.2 475.6L521.6 476.6V477.6L518 489.8L514.6 502.2L515 513.6L515.2 525.2L515.6 527L515.8 528.8H514.8L506.4 513.2Z" fill="white"/>
<path d="M415.2 526L406.4 524L398.8 510.4L391 496.8V495.6L399.2 494.6L407.2 493.4L420.8 491.4L434.2 489.4L435.8 491L437.2 492.6L438.8 494.8L440.2 497L440.8 507L441.2 517L434 522.6L427 528.2H425.4L424 528L415.2 526Z" fill="#FFEAE7"/>
<path d="M298 511.6L282.8 502.8V502L298 498.4L313.2 494.8L320.6 492.8L328 491L328.2 491.2L328.4 491.6L323.8 500.8L319.2 509.8L316.4 515.2L313.6 520.4H313.4L298 511.6Z" fill="white"/>
<path d="M214 513.6L208.8 511.2L199.6 492.2L190.2 473.2L196.6 463.6L203.2 454.2V454L220.8 459L238.4 464V465.8L229.2 490.4L220 515L219.6 515.4L219.2 515.8L214 513.6Z" fill="white"/>
<path d="M449.8 513L446.6 512.2L446.4 512L446.2 511.8V493H453.6L454 496.2L454.4 499.6L454.8 506.8L455.2 514H452.8L449.8 513Z" fill="white"/>
<path d="M172 513L166 488.6L160.2 464L161 463.8L161.6 463.4L169 462.6L176.4 461.8L176.8 462.2L177.2 462.6L189.8 486.4L202.4 510.4H202.2L202 510.6L189.2 511.8L176.4 512.8H174.4L172.2 513.2L172 513Z" fill="#BEB771"/>
<path d="M572 499L558.4 486H559.4L579.4 490.4L599.4 494.8H599.6V512.2H585.2L571.8 499H572Z" fill="white"/>
<path d="M157 503.2L151 500L144.6 502L138 504H137.2L136.4 504.4L133.8 500.4L131.2 496.4V495.2L138 484.8L144.8 474.2L151.4 474.6L157.8 475L158.6 475.8L159.2 476.6L161.2 491.2L163.2 505.8V506L162.8 506.2L157 503.2Z" fill="white"/>
<path d="M202.6 576.2L195.8 565.4V563.8L200.2 558.4L204.4 552.8L205.2 552L206 551L213.4 559.8L220.8 568.4V569.2L215.6 578L210.4 587H209.6L202.6 576.2Z" fill="white"/>
<path d="M291.6 577.2L286.6 569.2L279.8 559L273 548.6L277 544.6L280.6 541H282.4L285.6 542.6L289 544.2L295.6 548.2L302.2 551.8L309.4 555.2L316.4 558.4L325.4 562L334.4 565.8V567.2L328.4 573.8L322.4 580.4L310 582.8L297.2 585H296.6L291.6 577.2Z" fill="white"/>
<path d="M50.4004 582.8L50.0004 581.6L49.6004 579L49.2004 576.4L47.2004 572.8L45.6004 569.4L42.0004 559L38.4004 548.4L38.6004 547.6L39.0004 546.8L53.0004 534.8L67.2004 522.8L68.2004 523.4L69.0004 524L73.6004 527.4L78.0004 531V532L71.4004 552.2L64.8004 572.6L64.4004 575.2L64.0004 577.8L58.0004 580.6L52.0004 583.2L51.4004 583.6L50.6004 583.8L50.4004 582.8Z" fill="white"/>
<path d="M503.4 578.6L500.4 575.4L500.8 574.6L501 573.8L510.4 560.2L519.8 546.6H520.8L530.4 556.6L539.8 566.6L540 567L540.2 567.6L537.8 568.6L535.4 569.6L521.2 575.6L507 581.8H506.6L503.4 578.6Z" fill="white"/>
<path d="M600 571.2L600.2 568.2L601 557.6L601.8 547.2L615 540L628.2 532.8L629.6 532L631 531.4L633 540L635 548.6L633.8 557.4L632.2 566.2L631.6 570.2L631 574.2H599.6L600 571.2Z" fill="#A9805E"/>
<path d="M419.6 568.6L408 563.6L407.6 554L407.2 544.4L406.8 538.4L406.4 532.4L420.4 532.8H434L438 543.2L441.6 553.2V554.6L437.2 564L432.6 573.4H431.8L431 573.8L419.6 568.8V568.6Z" fill="#FFEAE7"/>
<path d="M488.2 562L480.2 553.4L479.4 552L478.6 550.8L486.6 531.6L495 512.4L495.4 512L495.8 511.4L497.2 513.4L498.4 515.6L505.2 526.6L512.2 537.4L513.8 539L515.4 540.8L514.8 541.6L514.4 542.6L506 556L497.8 569.4L497 570.2L496.4 571L488.2 562Z" fill="#FFEAE7"/>
<path d="M149.4 560.4L139.8 553L135.6 549.8L131.2 546.4V546L131.6 545.6L136.2 540.6L140.8 535.6L145.2 537.4L149.8 539L155.2 537.8L160.8 536.4L161.6 536.6L162.4 537L169.8 548.2L177.2 559.6V560.6L168.6 564.2L159.8 567.8H159L149.4 560.4Z" fill="white"/>
<path d="M535.8 555.2L525.4 544L525.6 543.8V543.6L536.4 544.4L546.8 545.4H549L554.4 552.4L560 559.4V560.4L553.4 563.6L546.8 566.6H546.2L535.8 555.2Z" fill="#BEB771"/>
<path d="M216.8 557.2L208.8 548.6L210.2 545.4L211.8 542.2H212.6L228.6 550.6L244.6 559.2V559.8L235 562.8L225.6 565.8H225L216.8 557.2Z" fill="#FFEAE7"/>
<path d="M92.8 560L80.4 556.4L78.6 556L77 555.6V554.6L77.4 553.4V540.4L82.8 535.8L88.2 531.4H108.2L116.2 536.8L124.2 542.2L122.2 544.6L120.2 547.2L113 555.2L106 563.2H105.2L92.8 560Z" fill="white"/>
<path d="M354 549.2L340 538.6L339.2 538L338.6 537.4L347 529.6L355.4 522L360.6 517.6L365.8 513.4L371 509.8L376.4 506.2V506.4L376.8 506.6L374.8 521L372.6 535.4L370.8 547.4L369.2 559.2L368.8 559.6L368.4 560L354 549.2Z" fill="white"/>
<path d="M388.6 555.4L375.6 551L375.8 548.4L376.2 545.8L379.8 520.4L383.6 495.2L383.8 494.8L384.2 494.6L384.8 495.8L385.6 497L389.4 504.2L393.2 511.2L396.8 518.2L400.8 525L401.6 540.2L402.6 555.4V560.2H401.6L388.6 555.4Z" fill="white"/>
<path d="M560.2 551.2L554 542L561.4 526L569 509.6L569.8 509.8H570.4L584.4 515.8L598.8 521.8L598.4 524.4L598 527L597.2 536.2L596.6 545.6L582.2 552.8L567.8 560H567L560.4 551L560.2 551.2Z" fill="white"/>
<path d="M331.6 556.6L324.8 554L315.6 549.8L306.2 545.8L297 540.4L287.8 535.2L287.2 534.8L286.4 534.6L289.6 531.6L293 528.4L297.4 524.4L301.8 520.4L323 534L344 547.4L344.4 547.8L341.8 553.8L339 559.4H338.2L331.6 556.6Z" fill="white"/>
<path d="M462.8 556.4V555.2L461.2 530.2L459.6 505.4L459.2 501.4L458.8 497.6L462.6 495.8L466.2 494L476.2 504.6L486.2 515L486.4 515.8V516.6L477.6 535.8L468.8 555.2L466 556.4L463.2 557.6H462.8V556.4Z" fill="white"/>
<path d="M240.4 551.2L232 546.2V544.4L238 536.6L243.4 529L249.2 520.2L254.8 511.2L257.8 507.6L260.6 504.2H261.6L277.4 511.4L293.2 518.8L293 519.2V519.8L283.4 527.6L274.2 535.6L261.8 545.8L249.8 556.2H248.6L240.4 551.2Z" fill="#BEB771"/>
<path d="M186.4 553.4L179.2 552.8L178.6 552L178 551.4L171 538.6L163.8 525.8V524.6L173.8 521L184 517.4L200.4 518.8L216.6 520H216.8L217 520.2L209.8 532.2L202.4 544.4L199.6 549.2L196.6 554H195.2L193.6 554.2L186.4 553.4Z" fill="#FFEAE7"/>
<path d="M445.6 549.6L445.4 548.6L441.4 537.8L437.8 527.2L438 527L445.4 523L452.6 519V519.2L453 519.4L455 530L457 540.8V543.2L452 546.8L447 550.6H446L445.6 549.6Z" fill="#A9805E"/>
<path d="M219 539.4L214.4 536.6L214 536.2L213.6 535.8L222.4 517.4L231.2 499L233.2 495.4L234.8 491.6L241.8 495L248.6 498.2L251.4 499.4L254.2 500.6L251.6 503.6L249.2 506.6L243.2 516L237.2 525.2L231.2 533.8L225 542.2H223.6L219 539.4Z" fill="white"/>
<path d="M534 536.4L522 534.4L521.6 534L520.6 520L519.6 506L520.2 503.4L521 500.8L541 499.8L560.8 498.6L563.6 500.8L566.4 503.2V504.6L557.6 521.4L548.8 538.4H546.2L534.2 536.4H534Z" fill="#BEB771"/>
<path d="M605.2 522L605.4 506L605.8 500L606.2 494L606.6 494.2H607L619.8 499.2L632.6 504.2L634.2 509.6L635.6 515L635.4 516V517.2L620.6 527.4L606 537.8H605L605.2 522Z" fill="white"/>
<path d="M119.2 533L115.2 529L113.2 521L111.2 513.2L111.4 505.4V498L116.2 494L121 490L131 509.8L141 529.6V530.8L133 534L125.2 537.2H123.4L119.2 533Z" fill="white"/>
<path d="M326.2 528.6L318.2 522.6L326 506.8L333.6 490.8H361.2L367.2 496.6L373.2 502V503L369.4 505.4L365.8 507.8L360.6 511.8L355.6 515.8L345.4 525.2L335 534.6H334.2L326.2 528.6Z" fill="#FFEAE7"/>
<path d="M142.4 522L138.8 510.8L139.4 510.2L139.8 509.8L147 507.8L154.2 505.6L159.8 509.2L165.2 513.2L165.8 513.6L166.4 514.4L161.2 523.8L156 533.2H146.2L142.4 522Z" fill="white"/>
<path d="M217 613.2L209.6 607.4L209 606.8L208.6 606.4L216.4 590.4L224 574.4L227.4 572.6L230.6 570.8L231.4 571.8L232 572.8L234.8 577.8L237.4 582.8L241.6 588.4L245.8 594.2L245 595.2L244.2 596.2L235.2 606.6L226.4 616.6L225.4 617.8L224.4 619L217 613.2Z" fill="white"/>
<path d="M22.7996 610.8L21.9996 606L20.1996 600.6L18.5996 595.2L20.5996 593.2L22.5996 591.2L33.1996 582.8L43.9996 574.4L44.1996 574.8L46.9996 587.6L49.5996 600.4L49.7996 601.4L50.1996 602.4L37.5996 609.2L25.1996 616H23.9996L22.7996 610.8Z" fill="white"/>
<path d="M271.2 608.6L265.2 604L258.2 597L251.2 589.8L247.4 585L243.8 580.2L241 575L238 570V569.2L250.8 562.4L263.4 555.8L265.4 554.8L267.4 553.8L281.4 572.8L295 592V593L288 602.4L280.8 612L279.6 612.6L278.6 613.2H277.2L271.2 608.6Z" fill="white"/>
<path d="M86 606.8L77.2 601.2L76.6 600.8H76L78.8 582.2L81.6 563.6L81.8 563.2L82.2 562.8L91.2 565.2L100.2 567.4L100.8 568L101.6 568.4L102.4 572L103.2 575.8L109.2 587.8L115.2 599.8V600.6L114.8 601.4L107.4 605.4L100.2 609.6L97.6 611L95 612.4L86 606.8Z" fill="white"/>
<path d="M174 604.6L156.4 603.8L159.8 587.8L163.4 571.8L164 571.6L164.8 571.2L174.6 567.4L184.6 563.8L185 564L185.4 564.2L190 570L194.4 575.4L201.4 584L208.4 592.6L209 593.4L209.6 594.2L205.4 600L201 605.8H196.4L191.8 605.6L174 604.6Z" fill="white"/>
<path d="M116 586.4L108 571L117.2 560.4L126.4 549.8L127.4 550.8L128.4 551.6L142 562.4L156 573.2L156.2 573.4L154.8 585.8L153.4 598.2L153 598.6L152.6 599L138.6 600L124.6 601.2L124 601.4L123.6 601.8L116 586.4Z" fill="white"/>
<path d="M461.4 596.4L456 594.4L445.6 588L435.4 582L438.6 574.6L441.8 567.4L443.8 562.8L445.8 558.2H455.2L461.6 563L467.8 568V598.6H467.4L466.8 598.4L461.4 596.4Z" fill="white"/>
<path d="M558.6 586L540 576L541.8 575.2L543.4 574.4L557.4 569L571.6 563.4L582.4 559.4L593.2 555L593.4 555.4H593.8L593 568.4L592.4 581.2L584.4 589L576.8 596.8L558.6 586Z" fill="white"/>
<path d="M378.8 582L368.8 568.2V567.8L368.6 567.2L374.8 562.6L381.2 558L381.8 557.4L382.4 557L401.4 567L420.2 577L420.6 577.2L421 577.8L405.4 586.8L389.8 596H388.8L378.8 582Z" fill="#FFEAE7"/>
<path d="M621.4 593.6L619.4 591.8H619L620.4 584.6L621.8 577.8L625.4 577.6L629 577.4L630 579.4L630.8 581.4L631.8 584L632.6 586.4L628.6 590.4L625 594.4L624.2 594.8L623.4 595.2L621.4 593.6Z" fill="#A9805E"/>
<path d="M16.4002 585.6L16.2002 584.2L15.6002 579.4L15.2002 574.6L16.4002 575L17.6002 575.4L22.6002 577.2L27.6002 578.8V579.8L24.4002 582.4L21.4002 584.8L19.4002 586L17.4002 587H16.8002L16.4002 585.6Z" fill="white"/>
<path d="M420.4 619.2L412.8 600.2L411.6 596.8L410.4 593.6L417.4 589.2L424.6 584.8L428.8 587L432.8 589.4L444.8 595.6L456.8 602V603.4L452.8 620L448.4 636.8L440.4 637.2L432.4 637.6L430 638L428 638.2L420.4 619.2Z" fill="white"/>
<path d="M70.7996 636L69.5996 634.8L69.7996 631.6L70.1996 628.2L76.1996 627.8L82.1996 627.4L85.3996 626.2L88.5996 624.8L91.9996 630L95.3996 635L94.5996 635.4L93.9996 635.8L85.1996 635.4L76.3996 635L75.9996 636L75.5996 637H71.5996L70.7996 636Z" fill="white"/>
<path d="M236.2 628.6L229 622.6L229.2 622.2L229.4 621.6L239.6 610L249.6 598.6L256 604.6L262 610.4L266 613.2L270 616.2V616.8L257.4 625.6L244.6 634.4H243.6L236.2 628.4V628.6Z" fill="#FFEAE7"/>
<path d="M572.4 629.2L557 628.2L556.6 628L556.2 627.6L578.2 605.6L600.2 583.6L607.4 584.8L614.8 585.8L615.2 586.2L615.6 586.6L612.4 606.2L609.4 625.6H609.2L609 625.8L600.2 628.2L591.6 630.6H589.6L587.8 630.4L572.4 629.2Z" fill="white"/>
<path d="M623.2 628.4L615.6 626.2L615.2 625.8L615 625.4L617.4 613.8L620 602.2L620.4 602L620.8 601.6L622.8 602.8L624.6 603.8L625.4 607.4L626.4 611L629 620.4L631.6 629.8V630.6H631.2L630.8 630.4L623.2 628.4Z" fill="#BEB771"/>
<path d="M94.7998 626.4L92.7998 623.6V622.6L104.8 613.8L116.6 605.2L121.6 605.6L126.4 606.2L128 606.6L129.4 606.8L125 610L120.6 613L109.4 620.6L98.1998 628.4L97.5998 628.8L96.7998 629.2L94.7998 626.4Z" fill="#FFEAE7"/>
<path d="M320.4 619.2L321.799 591L333.799 577L353.799 555.8H354.2L356.799 559.8L359.4 563.8L371.4 581.8L383.4 599.8V601L382.6 601.2L381.799 601.6L351.799 613.8L321.799 626.2L320.799 626.4L320 626.8L320.4 619.2Z" fill="white"/>
<path d="M458.2 624V623.2L460 614.6L461.6 605.8L462 605.4L462.4 605L469 603.2L475.4 601.6L475.2 599.8L474.8 598.2L472.8 579.4L470.6 560.4L471.8 559L473.2 557.6H474.2L491.2 575.6L508.2 593.6V594.4L501.2 600.2L494.4 605.8L485.4 613.2L476.4 620.6L475.6 621.4L474.6 622L467 623.4L459.6 624.8H458.2V624Z" fill="white"/>
<path d="M531 605.4L514.4 586.2L515 585.8L515.6 585.2L524.8 581.6L534 578L552.2 589L570.6 600L571.2 600.6L571.8 601L560 613L548.2 624.8H547.6L531 605.4Z" fill="white"/>
<path d="M67.9996 616.6L62.3996 609L57.9996 606L53.3996 603L52.9996 597.6L52.5996 592.4L52.7996 590.4L52.9996 588.6L59.5996 586L65.9996 583.6L68.9996 574L71.9996 564.6H72.9996L74.5996 566.4L76.3996 568.2L73.9996 586L71.5996 603.8V604.6L74.9996 606.8L78.3996 609.2L84.9996 613L91.5996 616.8V617.6L83.5996 620.4L75.7996 623.4L74.7996 623.8L73.9996 624.2L67.9996 616.6Z" fill="#BEB771"/>
<path d="M609.4 61.8L640 70V30L627 27.2L620 27L614.2 45L609.4 61.8Z" fill="#FFEAE7"/>
<path d="M0 30V70L17 63.2L7 30H0Z" fill="#FFEAE7"/>
<path d="M0 134V154.6V174L5.2 174.6L10.6 174.2L29.4 173.4L35.2 163.8L41 153.8V152.8L3 133L1.6 134H0Z" fill="white"/>
<path d="M626 141L640 174V154V134H634L626 141Z" fill="white"/>
<path d="M0 126L5 128L24 72L17.2 69.2L0 76V126Z" fill="white"/>
<path d="M632 123L640 126V76L613 87L632 123Z" fill="white"/>
<path d="M0 216V226L6 222L5.8 219L2.4 218L0 216Z" fill="#FFEAE7"/>
<path d="M620 227L614 222L612.6 220.6L613.777 210L630 212.2L640 216V226L632.6 229L625.6 231.6L619.8 226.8L620 227Z" fill="#FFEAE7"/>
<path d="M629.2 201.6L627 206.8H614.133L616 190L619.2 159.4L622.4 155.4L625.4 151H625.799L627.799 157L629.799 163.4L631.799 170.2L633.799 176.8L631.4 189.2L629.2 201.6Z" fill="white"/>
<path d="M0 210L3.4 212L6.8 213.8H7L22.2 209.6L37.4 205.6L40.2 204.4L49.2 197.8L58.2 191.4V190.4L42.8 185L27.2 179.6L0 180V210Z" fill="#BEB771"/>
<path d="M633.2 206L640 210V180H638L635 197L634 201.4L633.2 206Z" fill="#BEB771"/>
<path d="M612.6 380L612.4 411.8L640 400V372L632.6 368L612.6 380Z" fill="#A9805E"/>
<path d="M0 372V400L19.6 390.4V387.603L16.6 382.8L10 378.4L3.6 374.2L1.8 373L0 372Z" fill="#A9805E"/>
<path d="M0 326L3.4 330.4L12.2 321.8L20.6 315H23L29.4 316L36 317L36.4 316.4L37 316L41 304.8L26.6 293L12 281L11.6 281.4L11 282.2L5.6 294.2L0 306.2V326Z" fill="#A9805E"/>
<path d="M635 319L640 326V306L635 319Z" fill="#A9805E"/>
<path d="M623 317.2L624.6 317.6V317.4L626.2 318H631.4L635.8 306L640 294V268L638.4 266.4L624.8 273L611.2 279.4V281.2L617 299.2L623 317.2Z" fill="white"/>
<path d="M0 268V294L3.6 284.4L7 275V274.2L0 268Z" fill="white"/>
<path d="M0 256L3.4 259.2L10 256L16.4 253.4L24 249.4L40 244.6L40.8 243.8L41.4 242.8L47.4 226.4L43.2 219L38.8 211.6H36.8L24.4 215.2L12 219L0 250V256Z" fill="white"/>
<path d="M638 253.8L640 256V250L638 253.8Z" fill="white"/>
<path d="M0 478V434L25.2 449.8L26 478H0Z" fill="white"/>
<path d="M632 478L610 471L612 453L617 423L634 431L640 434V478H632Z" fill="#BEB771"/>
<path d="M608 488L611 478L627 485L620 494L608 488Z" fill="white"/>
<path d="M0 428L9.4 432.2L18.8 435.8H19.6L41 415.2L38.6 411.4L36.4 407.4L25.4 403.2L14.6 398.8L7.2 403.2L0 408V428Z" fill="white"/>
<path d="M640 428V408L621 419L640 428Z" fill="white"/>
<path d="M627.8 491.2L640 506V480L627.8 491.2Z" fill="#BEB771"/>
<path d="M0 506L2.4 509.6L10.6 502.8L26.6 490.8L26.8 490.4L27.2 489V487L26.6 485.438L24.8 484L22 483L17 482L0 480V506Z" fill="#BEB771"/>
<path d="M636.4 555.48L635 584L640 580V554L636.4 555.48Z" fill="#A9805E"/>
<path fill-rule="evenodd" clip-rule="evenodd" d="M0 580V554L7 551.45L8.4 571.8L0 580ZM14 571.8H23.4L30.8 572.8L38 574L38.4 573.8L36.2 559.8L33.8 545.8L33.4 545.2L32.8 544.8L20.8 548L11 550.45L14 571.8Z" fill="white"/>
<path d="M2.6 545.6L3.2 546.8L4 548H6.6L13.6 545.2L20.8 542.2L31.6 540.2L42.6 538.2L65.4 510.2L61 501.2L56.8 492L56.4 491.6L56 491L35.2 493.4L28.4 497.8L21.4 501.8L14.8 508L8 514.2L0 520V538L1.4 542.2L2.6 545.6Z" fill="white"/>
<path d="M635 524L640 538V520L635 524Z" fill="white"/>
<path d="M0 586V632L9.2 624.4L14.6 620.4L19.8 616.4V614.4L15.4 600L10.8 585.4L8 579.2L5 582L0 586Z" fill="#FFEAE7"/>
<path d="M638.8 631.2L639.2 631.6L639.4 632H640V586L627.8 597L630.4 605L632.8 613L638.8 631.2Z" fill="#FFEAE7"/>
<path d="M16 11.8L8 0H68V2L65.8 4.4L61.6 6.4L57.2 8.4L41.2 15.8L25 23.2H24L16 11.8Z" fill="#BEB771"/>
<path d="M6.4 637.4L5 634.8H5.2L5.4 634.6L14 629.4L22.8 624.2L31.2 619.4L39.6 614.6L46 611.8L52.4 608.8L59.6 616.4L66.8 623.8V631.8L68 640H8L6.4 637.4Z" fill="#BEB771"/>
<path d="M98.4002 58L94.4002 57.4L88.6002 47.2L82.6002 37L73.0002 27.6L63.2002 18L70.0002 9.2L76.0002 0H83.4002L89.6002 2L96.0002 4L108 20L119.6 35.6L118.4 38L117.2 40.4L111.6 49.6L106 58.8H104L102 59L98.4002 58Z" fill="white"/>
<path d="M77 639L78 638L80.8 639L83.4 640H76L77 639Z" fill="white"/>
<path d="M584 0L570 18L572 22H580L598 21L604 16L612 15.2V0H584Z" fill="white"/>
<path d="M584 640H612V630L589 634L584 640Z" fill="white"/>
<path d="M7.6 24H0V0L2 2L8.4 12.4L15.4 24V24.4L15 24.8L7.6 24Z" fill="white"/>
<path d="M627.6 21.4L618.6 19.8L617.8 19L616.8 9.6L616 0H640V24H636L627.6 21.4Z" fill="white"/>
<path d="M615.2 633.4L615.6 636.8L616 640H640L638 638L636 637L633 636L626.4 634.6L615.8 632.8L615.4 633L615.2 633.4Z" fill="white"/>
<path d="M316.6 34.4L328.6 35.4L340.8 36.2L341.8 36.4H343L343.4 35.8L343.6 35.4L348.2 18.4L352 0H306L311.6 18L316.6 34.4Z" fill="#A9805E"/>
<path d="M304.4 633.4H353L352 640H306L304.4 633.4Z" fill="#A9805E"/>
<path d="M143.6 628.4L125.6 616.8V616L132.4 611.4L139.2 606.8L166.6 608L194 609.2H196L198 609.6L181.8 624.8L165 640L143.6 628.2V628.4Z" fill="white"/>
<path d="M229.4 28.6V29.4L230 30H232L249.2 26.8L266.8 23.4L267 23L267.4 22.6L265 11.6L262 0H248L237.8 7.6L227.2 15V16.6L228.2 22.6L229.4 28.6Z" fill="white"/>
<path d="M259 631L248 640H262L259 631Z" fill="white"/>
<path d="M278 31.4L293.2 32.6L308.2 34H311V33.8L305.6 17L300 0H270L270.6 2.4L274 16.6L277.4 30.6L277.8 31L278 31.4Z" fill="white"/>
<path d="M270 640L267 626L270.4 623L294 625L300 640H270Z" fill="#BEB771"/>
<path d="M100 0L110 12L125 32L139.6 25.4L160.8 20.2V3L156 0H100Z" fill="white"/>
<path d="M99.2002 633.8L99 638L100 640H156L153.2 638.4L150 637L145.8 635.2L141.8 633.2L130 627.6L118.2 622.2H116.4L108 627.4L99.8002 632.6L99.4002 633.2L99.2002 633.8Z" fill="#BEB771"/>
<path d="M532.4 4.4L561.4 18.6H563.6L580 0H540L532.4 4.4Z" fill="white"/>
<path d="M554 631L540 640H580L585 634L554 631Z" fill="white"/>
<path d="M167.4 15.2L167.8 16.6L168 18H170L194 13.6L222 9L232 0H172L165 8L167.4 15.2Z" fill="#FFEAE7"/>
<path d="M172 640H232L234 638L221.601 624.8L207.601 612.8L202.601 615L197.4 617L184.801 628L172 640Z" fill="#FFEAE7"/>
<path d="M449 6L450 0H482L485 6L477.8 11.2L477.6 11.4L464 12.6L455 14L449 6Z" fill="white"/>
<path d="M482 640H450L453 631L454 629L477 625L478 633L482 640Z" fill="#BEB771"/>
<path d="M492 0L498.4 4.8L509 9H509.4L528 0H492Z" fill="white"/>
<path d="M487 637L492 640H528L544 629.4L515.2 599L480.6 622.6L483 635L484.6 636.2L487 637Z" fill="white"/>
<path d="M356 16L361 17L401.6 4.2L411 0H360L356 16Z" fill="white"/>
<path d="M360 640L366 615L401 596L412 615L422 636L411 640H360Z" fill="white"/>
<path d="M307.167 588L284.167 616L284 618L308 629L313 627L318 593L307.167 588Z" fill="white"/>
<path d="M18.2 359.6L11 365H0V336L9.4 330.2L19 325L20.6 357.6L18.2 359.6Z" fill="white"/>
<path d="M630.8 323.2L633 327.4L631.533 333L616 337L612 331L617.2 325L619.6 322.8L623.6 320L630.8 323.2Z" fill="white"/>
<path d="M606 375.8H605.6L597 355L604.407 344L631.533 338.822L640 336V365L621.661 366.93L617.2 369.4L606 375.8Z" fill="white"/>
</svg>
