<svg xmlns="http://www.w3.org/2000/svg" id="Layer_31" data-name="Layer 31" viewBox="0 0 1900 900"><defs><style>.cls-1{fill:#181c19}.cls-2{fill:#1a2333}</style></defs><rect width="1900" height="900" class="cls-1"/><rect width="1900" height="2.5" y="882.03" class="cls-2"/><rect width="1900" height="2.5" y="853.03" class="cls-2"/><rect width="1900" height="2.5" y="824.03" class="cls-2"/><rect width="1900" height="2.5" y="795.03" class="cls-2"/><rect width="1900" height="2.5" y="766.03" class="cls-2"/><rect width="1900" height="2.5" y="737.03" class="cls-2"/><rect width="1900" height="2.5" y="708.03" class="cls-2"/><rect width="1900" height="2.5" y="679.03" class="cls-2"/><rect width="1900" height="2.5" y="650.03" class="cls-2"/><rect width="1900" height="2.5" y="621.03" class="cls-2"/><rect width="1900" height="2.5" y="592.03" class="cls-2"/><rect width="1900" height="2.5" y="563.03" class="cls-2"/><rect width="1900" height="2.5" y="534.03" class="cls-2"/><rect width="1900" height="2.5" y="505.03" class="cls-2"/><rect width="1900" height="2.5" y="476.03" class="cls-2"/><rect width="1900" height="2.5" y="447.03" class="cls-2"/><rect width="1900" height="2.5" y="418.03" class="cls-2"/><rect width="1900" height="2.5" y="389.03" class="cls-2"/><rect width="1900" height="2.5" y="360.03" class="cls-2"/><rect width="1900" height="2.5" y="331.03" class="cls-2"/><rect width="1900" height="2.5" y="302.03" class="cls-2"/><rect width="1900" height="2.5" y="273.03" class="cls-2"/><rect width="1900" height="2.5" y="244.03" class="cls-2"/><rect width="1900" height="2.5" y="215.03" class="cls-2"/><rect width="1900" height="2.5" y="186.03" class="cls-2"/><rect width="1900" height="2.5" y="157.03" class="cls-2"/><rect width="1900" height="2.5" y="128.03" class="cls-2"/><rect width="1900" height="2.5" y="99.03" class="cls-2"/><rect width="1900" height="2.5" y="70.03" class="cls-2"/><rect width="1900" height="2.5" y="41.03" class="cls-2"/><rect width="1900" height="2.5" y="12.03" class="cls-2"/></svg>