<?xml version="1.0" encoding="utf-8"?>
<!-- Generator: Adobe Illustrator 22.1.0, SVG Export Plug-In . SVG Version: 6.00 Build 0)  -->
<svg version="1.1" id="Layer_1" xmlns="http://www.w3.org/2000/svg" xmlns:xlink="http://www.w3.org/1999/xlink" x="0px" y="0px"
	 viewBox="0 0 1000 249.6" style="enable-background:new 0 0 1000 249.6;" xml:space="preserve">
<style type="text/css">
	.st0{fill:#f8f8f8;}
	.st1{fill:none;stroke:#f8f8f8;stroke-width:16;stroke-miterlimit:10;}
</style>
<g>
	<path class="st0" d="M245.8,157.5h-15.1V91.1h15.1v26.5h21.4V91.1h15.1v66.3h-15.1v-26.6h-21.4V157.5z"/>
	<path class="st0" d="M363.8,157.5h-16.2l-4.9-13.3h-25.2l-4.9,13.3h-16.2L323,91.1h14L363.8,157.5z M330.1,111.6h-0.2l-7.4,19.3h15
		L330.1,111.6z"/>
	<path class="st0" d="M423.5,139.7l6.4,12.9c0,0-7.4,6.1-21.8,6.1c-18.7,0-35.9-15.3-35.9-34.3c0-19.1,17.1-34.5,35.9-34.5
		c14.4,0,21.8,6.1,21.8,6.1l-6.4,12.9c0,0-5.3-4.1-13-4.1c-15.2,0-21.9,10.6-21.9,19.5c0,8.9,6.7,19.5,21.9,19.5
		C418.2,143.8,423.5,139.7,423.5,139.7z"/>
	<path class="st0" d="M486.7,157.5l-24.4-28.1v28.1h-15.1V91.1h15.1v27.1L485,91.1h18.3l-26.7,31.4l30.9,34.9H486.7z"/>
	<path class="st0" d="M594.7,157.5l-24.4-28.1v28.1h-15.1V91.1h15.1v27.1l22.8-27.1h18.3l-26.7,31.4l30.9,34.9H594.7z"/>
	<path class="st0" d="M660.3,89.9c18.4,0,33.4,15,33.4,34.3c0,19.4-14.3,34.4-33.4,34.4c-19.6,0-33.4-15-33.4-34.4
		C626.9,104.9,642.1,89.9,660.3,89.9z M660.3,144c12.1,0,17-9.9,17-19.8c0-9.9-5.3-19.8-17-19.8c-11.7,0-17.1,9.9-17.1,19.8
		C643.2,134.1,648,144,660.3,144z"/>
	<path class="st0" d="M756.8,96.2l-6.1,12.1c0,0-6.6-4.6-13.4-4.6c-5.1,0-7.9,2.3-7.9,6c0,3.7,6.3,6.4,13.8,9.6
		c7.4,3.1,15.5,9.4,15.5,18.1c0,15.8-12.1,21.4-25,21.4c-15.5,0-24.9-8.8-24.9-8.8l7.6-12.7c0,0,8.8,7.5,16.2,7.5
		c3.3,0,9.6-0.3,9.6-6.5c0-4.8-7.1-7-15-10.9c-8-3.9-12.6-10.1-12.6-17c0-12.4,10.9-20.3,21.6-20.3
		C748.3,89.9,756.8,96.2,756.8,96.2z"/>
	<path class="st0" d="M792.3,157.5h-15.1V91.1h15.1V157.5z"/>
	<path class="st0" d="M859.2,139.7l6.4,12.9c0,0-7.4,6.1-21.8,6.1c-18.7,0-35.9-15.3-35.9-34.3c0-19.1,17.1-34.5,35.9-34.5
		c14.4,0,21.8,6.1,21.8,6.1l-6.4,12.9c0,0-5.3-4.1-13-4.1c-15.2,0-21.9,10.6-21.9,19.5c0,8.9,6.7,19.5,21.9,19.5
		C853.8,143.8,859.2,139.7,859.2,139.7z"/>
	<path class="st0" d="M920.7,104.4h-22.8v13.2h21.9v13.3h-21.9v13.3h22.8v13.3h-37.9V91.1h37.9V104.4z"/>
</g>
<rect x="61" y="63.6" class="st1" width="122" height="122"/>
<g>
	<path class="st0" d="M90.9,105.4h8.2v18.5h0.1c1.8-1.8,4.2-3.2,6.8-3.2c4.3,0,10.4,2.2,10.4,8.8V145h-8.2v-13.4
		c0-2.4-1.6-4.6-4.2-4.6c-2.4,0-4.8,2.3-4.8,4.6V145h-8.2V105.4z"/>
	<path class="st0" d="M144.3,132.7l12.4,12.4h-10.5l-9.5-9.5v9.5h-8.2v-39.7h8.2v24.3l8.3-8.3h10.6L144.3,132.7z"/>
</g>
</svg>
