<svg
  fill="none"
  width="128"
  height="128"
  viewBox="0 0 128 128"
  xmlns="http://www.w3.org/2000/svg"
>
  <style>
    path { fill: #141c15; }
    @media (prefers-color-scheme: dark) {
      path { fill: #dfe6f8; }
    }
  </style>
  <g>
    <path d="M60.2426 91.7574C57.8995 89.4142 54.1005 89.4142 51.7574 91.7574C49.4142 94.1005 49.4142 97.8995 51.7574 100.243L59.7574 108.243C62.1005 110.586 65.8995 110.586 68.2426 108.243C70.5858 105.899 70.5858 102.101 68.2426 99.7574L60.2426 91.7574Z"/>
    <path d="M100.243 60.2426C102.586 57.8995 102.586 54.1005 100.243 51.7574C97.8995 49.4142 94.1005 49.4142 91.7574 51.7574L83.7574 59.7574C81.4142 62.1005 81.4142 65.8995 83.7574 68.2426L91.7574 76.2426C94.1005 78.5858 97.8995 78.5858 100.243 76.2426C102.586 73.8995 102.586 70.1005 100.243 67.7574L96.4853 64L100.243 60.2426Z"/>
    <path d="M19.7574 59.7574C22.1005 57.4142 25.8995 57.4142 28.2426 59.7574L32 63.5147L35.7574 59.7574C38.1005 57.4142 41.8995 57.4142 44.2426 59.7574C46.5858 62.1005 46.5858 65.8995 44.2426 68.2426L36.2426 76.2426C33.8995 78.5858 30.1005 78.5858 27.7574 76.2426L19.7574 68.2426C17.4142 65.8995 17.4142 62.1005 19.7574 59.7574Z"/>
    <path fill-rule="evenodd" clip-rule="evenodd" d="M0 72V56L24 32H32V24L56 0H72L96 24V32H104L128 56V72L104 96H96V104L72 128H56L32 104V96H24L0 72ZM60 52H68L84 36V28L68 12H60L44 28V36L60 52ZM12 60V68L28 84H36L52 68V60L36 44H28L12 60ZM76 68V60L92 44H100L116 60V68L100 84H92L76 68ZM60 116H68L84 100V92L68 76H60L44 92V100L60 116ZM66 62H62V66H66V62Z"/>
    <path d="M68.2426 19.7574C65.8995 17.4142 62.1005 17.4142 59.7574 19.7574C57.4142 22.1005 57.4142 25.8995 59.7574 28.2426L67.7574 36.2426C70.1005 38.5858 73.8995 38.5858 76.2426 36.2426C78.5858 33.8995 78.5858 30.1005 76.2426 27.7574L68.2426 19.7574Z"/>
  </g>
</svg>
