<?xml version="1.0" standalone="no"?>
<!DOCTYPE svg PUBLIC "-//W3C//DTD SVG 20010904//EN"
 "http://www.w3.org/TR/2001/REC-SVG-20010904/DTD/svg10.dtd">
<svg version="1.0" xmlns="http://www.w3.org/2000/svg"
 width="980.000000pt" height="980.000000pt" viewBox="0 0 980.000000 980.000000"
 preserveAspectRatio="xMidYMid meet">
<metadata>
Created by potrace 1.11, written by Peter Selinger 2001-2013
</metadata>
<g transform="translate(0.000000,980.000000) scale(0.100000,-0.100000)"
fill="#000000" stroke="none">
<path d="M4570 9779 c-34 -15 -145 -120 -471 -446 l-427 -426 -32 12 c-133 46
-295 -37 -335 -173 -19 -62 -19 -90 0 -152 57 -193 312 -248 445 -96 40 45 70
119 70 172 0 15 -6 48 -14 74 l-14 46 406 412 c241 243 420 417 439 425 48 19
493 19 531 -1 15 -8 393 -381 840 -828 l812 -813 0 -275 0 -275 -828 -827
-827 -828 -260 0 -260 0 -830 830 -830 830 0 270 0 270 148 147 c81 82 147
153 147 158 0 6 -25 35 -55 65 l-54 54 -158 -163 c-87 -90 -166 -180 -175
-200 -14 -31 -17 -77 -17 -328 -1 -263 1 -296 18 -335 14 -33 207 -233 847
-877 714 -719 836 -837 882 -858 51 -22 60 -23 337 -23 279 0 285 0 337 24 45
21 174 146 883 861 519 523 836 851 847 874 14 31 17 77 17 323 1 267 0 290
-19 335 -18 40 -159 186 -853 882 -708 709 -840 837 -885 857 -52 24 -58 24
-335 23 -258 0 -286 -2 -327 -20z m-942 -1044 c26 -30 30 -90 7 -121 -52 -76
-175 -38 -175 53 0 43 21 80 54 94 35 14 89 2 114 -26z"/>
<path d="M5175 8758 c-162 -83 -198 -294 -73 -420 68 -67 160 -92 258 -68 l52
13 204 -204 204 -204 -16 -50 c-43 -138 49 -293 192 -326 145 -33 284 60 316
211 31 152 -96 303 -255 302 -34 0 -75 -6 -91 -12 -30 -11 -32 -9 -237 196
l-206 206 14 47 c37 118 -27 260 -142 312 -57 26 -167 25 -220 -3z m176 -167
c73 -74 1 -193 -97 -161 -101 34 -75 190 31 190 27 0 44 -8 66 -29z m770 -770
c53 -53 33 -138 -37 -161 -67 -22 -124 21 -124 93 0 53 43 97 95 97 27 0 44
-8 66 -29z"/>
<path d="M1784 6979 c-46 -18 -147 -116 -887 -857 -693 -695 -839 -845 -856
-885 -20 -45 -21 -67 -21 -335 0 -282 1 -288 24 -337 19 -40 190 -215 857
-882 586 -584 845 -837 871 -848 31 -12 90 -15 332 -15 268 0 298 2 338 19 33
15 240 216 875 853 694 695 835 841 853 881 19 45 20 69 20 333 0 360 11 331
-199 539 l-151 150 -57 -58 -58 -57 142 -142 c77 -79 146 -153 152 -165 7 -14
11 -108 11 -271 l0 -249 -29 -39 c-16 -21 -388 -398 -828 -836 l-798 -798
-270 0 -270 0 -813 813 c-447 446 -820 824 -828 839 -11 21 -14 79 -14 279 l0
252 148 151 c81 84 452 458 824 832 l678 679 275 0 275 0 419 -419 418 -418
-13 -46 c-18 -58 -18 -86 2 -151 32 -108 131 -181 245 -181 106 1 187 50 233
142 61 122 14 278 -103 342 -65 35 -143 44 -204 23 l-44 -15 -424 425 c-352
353 -433 429 -477 449 -51 23 -58 24 -325 23 -248 0 -276 -2 -323 -20z m1737
-1048 c21 -22 29 -39 29 -66 0 -50 -44 -95 -94 -95 -85 0 -131 106 -71 165 36
37 97 35 136 -4z"/>
<path d="M7370 6974 c-23 -9 -330 -309 -869 -847 -667 -667 -838 -842 -857
-882 -23 -49 -24 -55 -24 -337 0 -242 3 -294 16 -330 23 -60 1666 -1710 1732
-1739 40 -17 70 -19 330 -19 246 0 294 2 335 17 43 15 143 113 878 850 693
696 834 841 854 885 24 52 25 57 25 334 0 264 -1 285 -21 330 -17 40 -101 129
-446 475 l-426 427 12 32 c47 135 -38 296 -177 336 -179 52 -356 -108 -326
-295 24 -149 186 -251 329 -207 l50 16 408 -408 c230 -228 415 -421 423 -439
20 -47 20 -492 0 -531 -8 -15 -383 -395 -833 -844 l-818 -818 -265 0 -265 0
-825 825 -825 825 0 275 0 275 826 826 825 825 272 -3 272 -3 150 -150 150
-150 57 58 58 57 -155 156 c-105 106 -169 162 -198 175 -40 17 -70 19 -340 19
-241 -1 -304 -4 -332 -16z m1361 -653 c21 -22 29 -39 29 -66 0 -84 -105 -128
-162 -67 -63 65 -25 162 62 162 33 0 48 -6 71 -29z"/>
<path d="M6822 5543 c-57 -20 -126 -91 -146 -150 -18 -53 -21 -129 -6 -169 11
-27 6 -33 -124 -163 l-136 -136 136 -136 137 -137 -12 -32 c-41 -118 19 -262
134 -323 57 -30 173 -30 231 0 177 94 194 340 31 450 -67 45 -136 57 -211 38
l-60 -16 -73 73 c-40 40 -73 77 -73 83 0 6 31 41 68 78 l69 68 52 -17 c257
-84 456 239 265 430 -71 72 -182 95 -282 59z m160 -172 c27 -24 33 -36 33 -70
0 -91 -105 -131 -166 -63 -40 45 -39 84 5 128 44 44 83 45 128 5z m3 -765 c32
-32 40 -69 25 -107 -17 -39 -46 -59 -90 -59 -44 0 -73 20 -90 59 -26 64 20
131 90 131 30 0 47 -6 65 -24z"/>
<path d="M1506 4306 c-52 -20 -84 -44 -123 -94 -102 -133 -36 -342 126 -397
53 -18 115 -19 161 -4 l32 12 134 -134 134 -134 57 55 c32 30 94 90 139 133
l81 79 39 -11 c173 -48 334 72 334 250 0 180 -166 300 -342 247 -50 -15 -123
-79 -150 -131 -27 -54 -34 -140 -15 -194 l14 -41 -78 -78 -79 -79 -74 74 -74
73 16 37 c8 20 15 63 15 96 -1 99 -55 184 -147 232 -43 22 -151 27 -200 9z
m134 -161 c108 -56 29 -218 -83 -171 -41 17 -57 41 -57 88 0 76 71 119 140 83z
m769 1 c56 -29 66 -99 22 -148 -61 -68 -166 -28 -166 63 0 34 6 46 33 70 36
32 69 36 111 15z"/>
<path d="M4580 4159 c-31 -14 -92 -67 -197 -172 -84 -83 -153 -156 -153 -162
0 -6 25 -35 55 -65 l55 -54 153 152 153 152 269 0 270 0 823 -823 822 -822 0
-275 0 -275 -828 -828 -827 -827 -260 0 -260 0 -830 830 -830 830 0 270 0 270
420 420 c344 345 424 420 440 414 11 -3 48 -8 83 -11 236 -20 371 259 210 433
-111 121 -303 110 -404 -23 -47 -62 -62 -139 -43 -214 l16 -59 -423 -425
c-328 -329 -427 -435 -443 -471 -20 -43 -21 -66 -21 -330 0 -238 3 -290 16
-326 14 -35 177 -204 858 -886 641 -643 851 -847 885 -862 40 -18 67 -20 327
-20 276 0 285 1 336 23 46 21 167 138 883 861 533 538 836 850 847 874 25 55
26 590 2 654 -23 60 -1676 1720 -1742 1749 -40 17 -69 19 -330 18 -263 0 -291
-2 -332 -20z m-580 -634 c36 -19 50 -43 50 -88 0 -72 -74 -116 -138 -83 -37
19 -52 44 -52 86 0 41 14 66 48 84 35 19 56 20 92 1z"/>
<path d="M3910 1849 c-55 -25 -105 -71 -133 -124 -17 -31 -22 -58 -22 -115 0
-57 5 -84 22 -115 61 -115 190 -169 317 -134 l39 11 204 -204 c180 -179 203
-206 198 -228 -28 -117 -13 -198 51 -269 104 -116 270 -122 377 -14 20 19 44
51 53 72 26 52 30 152 10 206 -21 55 -84 121 -139 146 -48 21 -146 25 -197 8
l-32 -12 -205 206 -206 205 12 32 c6 18 11 61 11 95 0 184 -193 310 -360 234z
m149 -153 c56 -29 66 -99 22 -148 -24 -27 -36 -33 -70 -33 -91 0 -131 105 -63
166 36 32 69 36 111 15z m787 -790 c47 -47 46 -86 -1 -133 -31 -31 -40 -35
-72 -30 -87 15 -119 111 -55 168 45 40 84 39 128 -5z"/>
</g>
</svg>
