<?xml version="1.0" standalone="no"?>
<!DOCTYPE svg PUBLIC "-//W3C//DTD SVG 20010904//EN"
 "http://www.w3.org/TR/2001/REC-SVG-20010904/DTD/svg10.dtd">
<svg version="1.0" xmlns="http://www.w3.org/2000/svg"
 width="700.000000pt" height="700.000000pt" viewBox="0 0 700.000000 700.000000"
 preserveAspectRatio="xMidYMid meet">
<metadata>
Created by potrace 1.11, written by Peter Selinger 2001-2013
</metadata>
<g transform="translate(0.000000,700.000000) scale(0.100000,-0.100000)"
fill="#000000" stroke="none">
<path d="M3279 6996 c-2 -2 -48 -7 -102 -10 -53 -4 -103 -9 -110 -11 -6 -2
-34 -6 -62 -9 -27 -3 -86 -12 -130 -21 -44 -9 -93 -18 -110 -21 -61 -10 -293
-74 -390 -107 -204 -69 -470 -188 -600 -267 -27 -17 -57 -33 -65 -37 -8 -4
-41 -24 -72 -45 -31 -21 -60 -38 -63 -38 -3 0 -11 -5 -18 -10 -7 -6 -55 -41
-107 -77 -90 -64 -117 -84 -144 -108 -6 -6 -24 -20 -40 -33 -117 -90 -370
-341 -461 -457 -16 -21 -35 -43 -41 -49 -5 -6 -37 -47 -69 -91 -32 -44 -63
-81 -67 -83 -4 -2 -8 -9 -8 -16 0 -7 -8 -21 -18 -32 -23 -25 -118 -177 -171
-274 -102 -186 -199 -407 -266 -605 -31 -94 -101 -361 -110 -425 -4 -24 -8
-47 -10 -50 -1 -3 -6 -32 -10 -65 -3 -32 -8 -62 -10 -65 -13 -21 -20 -200 -20
-495 0 -326 3 -379 25 -518 5 -34 12 -80 15 -102 4 -22 11 -58 17 -80 6 -22
11 -49 13 -60 13 -89 99 -368 170 -547 43 -107 166 -361 177 -366 5 -2 8 -9 8
-16 0 -8 8 -24 19 -37 10 -13 20 -28 21 -34 6 -22 190 -301 219 -332 12 -12
21 -27 21 -32 0 -6 6 -14 13 -18 8 -4 27 -26 43 -48 72 -99 249 -286 390 -412
33 -29 66 -59 74 -66 8 -8 56 -46 105 -84 309 -241 640 -420 1025 -555 110
-39 345 -102 450 -121 280 -52 395 -62 695 -62 179 0 378 10 394 19 3 2 33 6
66 10 69 7 99 12 255 42 118 23 431 118 569 173 128 51 312 141 436 212 81 46
294 183 334 215 108 85 243 195 269 219 119 109 246 241 332 344 25 29 52 61
61 71 8 10 24 31 35 46 10 14 28 38 40 53 38 47 174 249 174 258 0 5 5 14 12
21 24 24 159 282 221 422 34 77 134 352 143 395 1 6 14 53 28 105 22 85 57
243 70 325 33 200 41 317 41 565 0 294 -12 412 -70 725 -25 134 -100 381 -172
565 -47 120 -204 443 -229 471 -7 8 -14 19 -14 23 0 8 -168 266 -179 276 -3 3
-31 39 -63 80 -31 41 -65 84 -75 96 -10 12 -43 50 -73 84 -67 77 -207 217
-284 285 -31 28 -71 63 -89 78 -88 79 -440 327 -463 327 -3 0 -18 9 -33 19
-49 35 -259 139 -398 197 -251 104 -502 179 -738 219 -16 3 -40 7 -51 9 -33 7
-127 20 -227 32 -44 5 -543 14 -548 10z"/>
</g>
</svg>
