<svg version="1" xmlns="http://www.w3.org/2000/svg" width="933.333" height="933.333" viewBox="0 0 700.000000 700.000000"><path d="M324.5 22.9c-2.6 1.2-14 11.9-32 30l-28 28.1h-6.1c-8.2 0-13.9 3-17.9 9.5-7.5 12.1-.2 28.3 14.1 30.9 5.5 1.1 13.3-1.6 17.6-6.1 4.6-4.7 5.8-7.9 5.8-15.1v-5.7l27.3-27.3L332.6 40h33.9l54.8 54.8 54.7 54.7v35l-54.3 54.3-54.2 54.2h-35l-54.8-54.8-54.7-54.7v-33.8l10-10.2c5.9-5.9 10-10.9 10-12.1 0-2.6-9-11.4-11.6-11.4-2.7 0-23.9 21.5-25.9 26.2-1.2 3-1.5 8.1-1.5 25 0 19 .2 21.6 2 25.2 1.3 2.7 21.2 23.3 59.2 61.3 49 48.8 57.9 57.3 61.3 58.2 5.5 1.5 43.1 1.3 47.2-.2 2-.8 25-22.9 61.6-59.2 50.2-49.8 58.7-58.6 59.6-62 1.4-5.2 1.4-41.8 0-47-.9-3.4-9.4-12.3-59.2-62.2-49.9-49.8-58.8-58.3-62.2-59.2-2.3-.6-12.9-1.1-24.5-1.1-17.9 0-21 .3-24.5 1.9zm-62.3 73.8c3.8 3.4 1.1 10.3-4 10.3-5.4 0-8.1-6.2-4.5-10.2 2-2.2 6.1-2.3 8.5-.1z"/><path d="M369.5 95.7c-7.8 4.1-11.8 10.2-11.9 18.3-.1 7 3.2 13.2 9.2 17.5 3.8 2.6 5.2 3 11.3 3.1h7l11 11c10.8 10.7 11 11 10.5 14.7-.9 5.4 1.1 12 5 16.6 12.2 14.2 35.4 5.4 35.4-13.6 0-12.4-9.7-21.3-22-20.1l-4.8.5-11.3-11.3-11.3-11.3.3-6c.4-9.2-3.9-16.1-12.1-19.6-4.8-1.9-12.4-1.9-16.3.2zM382 110c2.8 2.8 2.5 6.4-.7 8.9-4.2 3.4-9.3.7-9.3-4.8s6.1-8 10-4.1zm49 49c5.3 5.3-1.4 13.6-7.5 9.6-3.3-2.2-3.5-7.8-.3-10 3-2.1 5.4-2 7.8.4zM142.5 204.6c-4.2 2.1-116.2 114.2-118 118.1-1.2 2.5-1.5 7.7-1.5 25.6 0 13.4.4 23.7 1.1 25.4 1.3 3.5 110.7 113.4 116.8 117.4l4.5 2.9h22.8c19 0 23.4-.3 26.1-1.6 4.4-2.2 115.4-113 117.8-117.6 1.7-3.4 1.9-5.9 1.9-26.4 0-18.3-.3-23.2-1.5-25.8-1.8-3.7-23.5-25.6-25.4-25.6-.7 0-3.8 2.4-6.8 5.3-4.6 4.5-5.5 5.8-5 7.8.4 1.4 4.9 6.7 10.2 11.8l9.5 9.4v34.2l-54.8 54.8-54.7 54.7h-34l-54.8-54.8L42 365.5v-34l54.8-54.8 54.7-54.7h35.2l26.7 27.1 26.7 27.2.2 6.1c.3 8.8 3.9 14.6 11.2 18.1 4.6 2.3 6.5 2.7 11 2.3 17.1-1.4 24.7-22.4 12.5-34.6-4.1-4.1-10.9-6.6-16.4-6l-4.4.5-28.3-28.3c-15.6-15.6-29.8-29.1-31.5-29.9-4.7-2.2-47.6-2.2-51.9.1zm122 73.9c1.4 1.3 2.5 3.2 2.5 4.1 0 2.4-3.9 6.4-6.2 6.4-2.3 0-6.8-4.3-6.8-6.5 0-.9 1.1-2.7 2.5-4 1.3-1.4 3.1-2.5 4-2.5.9 0 2.7 1.1 4 2.5zM505.5 204.6c-4.2 2.1-116.2 114.2-118 118.1-2.3 4.7-2.2 47 .1 51.6 2.2 4.4 113 115.4 117.6 117.8 3.4 1.7 5.9 1.9 26.6 1.9h22.8l4.5-2.9c5.8-3.8 114.2-112.6 116.3-116.8 1.3-2.7 1.6-7.1 1.6-25.7 0-13.4-.4-23.6-1.1-25.3-.5-1.5-14-15.9-29.9-31.8l-28.9-29 .6-4.3c2.2-16.3-18.2-28.3-31.9-18.6-9.1 6.4-11.6 19.4-5.4 28.3 3.8 5.5 11.8 9.4 18.1 8.9l4.6-.3 27.5 27.1 27.4 27.2v34.7l-54.8 54.8-54.7 54.7h-34l-54.8-54.8-54.7-54.7v-35l54.3-54.3 54.2-54.2h35.3l10 10c5.5 5.5 10.7 10 11.6 10 .9 0 3.9-2.1 6.6-4.6 7.5-7 7.2-7.8-6.3-21.2-6.2-6.1-12.5-11.6-14.1-12.1-1.6-.7-11.9-1.1-25.4-1.1-18.5 0-23.3.3-25.7 1.6zm96 47.9c1.4 1.3 2.5 3.1 2.5 4 0 2-4.4 6.5-6.3 6.5-2.5 0-6.7-4.1-6.7-6.5 0-2.4 4.2-6.5 6.7-6.5.8 0 2.5 1.1 3.8 2.5z"/><path d="M458 307.1c-8.5 3.8-12 9.3-12 18.6v5.8l-8 8c-4.8 4.8-8 8.8-8 10 0 1.2 3.2 5.2 8 10l7.9 7.9v6.2c-.1 7.3 2.4 13 7.4 16.8 13.6 10.4 32.8 1.1 32.8-15.9 0-12.4-10-21.6-22-20.2-4 .5-5 .2-7.3-2.1l-2.8-2.6 2.1-2.2c1.8-1.9 2.8-2.2 7.4-1.7 24.5 2.5 32-31.7 8.6-39.6-4.9-1.6-9-1.3-14.1 1zm10.5 13.1c4.6 2.1 4.7 8.3.2 10.8-2.4 1.3-3 1.3-5.4 0-5.4-3.1-4.1-9.8 2.4-11.9.1-.1 1.4.4 2.8 1.1zm1.3 49.4c4.6 3.2 2 10.7-3.8 10.7-5.6 0-8.1-6.2-4-10.3 2.4-2.4 4.8-2.5 7.8-.4zM323.4 386.6c-3.6 1.8-25.4 23.5-25.4 25.3 0 2.1 10.2 12.1 12.3 12.1 1.2 0 6.1-4.1 12.2-10l10.1-10h33.9l54.8 54.8 54.7 54.7v34l-54.8 54.8-54.7 54.7h-34l-54.7-54.6-54.8-54.6v-34.3l27.5-27.5 27.4-27.4 4.9.3c16.9.9 27.2-19.1 17-33-2.9-3.9-11.1-7.9-16.2-7.9-11.6.1-21.6 11.1-20.4 22.5l.5 4.3-28.3 28.3c-15.6 15.6-29.1 29.8-29.9 31.5-1.2 2.6-1.5 7.8-1.5 25.7 0 13.4.4 23.7 1.1 25.4 1.3 3.6 114.3 116.8 118.5 118.8 2.6 1.2 7.8 1.5 25.7 1.5 13.5 0 23.7-.4 25.4-1.1 3.5-1.3 113.4-110.7 117.4-116.8l2.9-4.5v-22.8c0-19-.3-23.4-1.6-26.1-2.1-4.2-110.5-113-116.3-116.8l-4.5-2.9h-23c-18.7 0-23.7.3-26.2 1.6zm-35.9 47.9c1.4 1.3 2.5 3.1 2.5 4 0 .9-1.1 2.7-2.5 4-1.3 1.4-3.1 2.5-4 2.5-.9 0-2.7-1.1-4-2.5-1.4-1.3-2.5-3.1-2.5-4 0-.9 1.1-2.7 2.5-4 1.3-1.4 3.1-2.5 4-2.5.9 0 2.7 1.1 4 2.5zM133.6 396.3c-2.2 1.2-5.3 3.9-7 6-4.1 5.2-4.9 14.4-1.7 21 3.6 7.4 13.1 12.5 20.9 11.2 3.6-.6 4-.3 11.7 7.5 5.7 5.7 8.7 8 10.5 8 1.7 0 4.7-2.2 10.2-7.7l7.8-7.7 5.8-.2c6.8-.1 10.7-2 15.1-7 4.1-4.6 5.1-7.3 5.1-13.5 0-11.1-8.7-19.9-19.9-19.9-2.7 0-6.2.5-7.8 1.1-3.3 1.2-9 6.4-10.8 9.9-1.9 3.7-2.7 10.1-1.6 13.7.8 2.7.6 3.4-1.5 5.4l-2.4 2.2-2.5-2.3c-2.1-1.9-2.4-3.1-2.4-8.4.1-7.1-1.2-11-4.9-14.9-6.5-6.9-17-8.8-24.6-4.4zm13.2 13.3c2.6 1.8 3 6.5.6 8.8-3.6 3.7-10.4.7-10.4-4.5 0-2.9 3.1-5.9 6-5.9.9 0 2.6.7 3.8 1.6zm49.2.4c4 4 1.3 10-4.5 10-3.9 0-5.5-1.6-5.5-5.4 0-5.9 5.9-8.7 10-4.6z"/><path d="M288.5 539.8c-7 3.3-12.5 11.5-12.5 18.7 0 11.5 11.3 21.6 22.8 20.2l4.9-.6 11.1 11.2 11.1 11.2-.2 6c-.1 4.4.5 7.1 2.1 10.1 9.8 19 38.3 12.3 38.3-9 0-12.6-9.8-21.6-22.1-20.4l-4.8.5-11.3-11.3-11.3-11.3.3-5.8c.2-7.5-2.7-13.6-8.6-17.7-5.5-3.8-13.8-4.6-19.8-1.8zM301 554c5.3 5.3-1.4 13.6-7.5 9.6-3.3-2.2-3.5-7.8-.3-10 3-2.1 5.4-2 7.8.4zm49 49c5.4 5.4-1.2 13.7-7.6 9.5-3.2-2.1-3.3-7.7-.2-9.9 3-2.1 5.4-2 7.8.4z"/></svg>